<?xml version="1.0" encoding="utf-8"?>
<!-- Generator: Adobe Illustrator 16.0.4, SVG Export Plug-In . SVG Version: 6.00 Build 0)  -->
<!DOCTYPE svg PUBLIC "-//W3C//DTD SVG 1.1//EN" "http://www.w3.org/Graphics/SVG/1.1/DTD/svg11.dtd">
<svg version="1.1" xmlns="http://www.w3.org/2000/svg" xmlns:xlink="http://www.w3.org/1999/xlink" x="0px" y="0px" width="612px"
	 height="792px" viewBox="0 0 612 792" enable-background="new 0 0 612 792" xml:space="preserve">
<g id="cut">
	<polyline fill="#FFFFFF" stroke="#ED1F24" stroke-miterlimit="10" points="395.476,562.668 395.476,640.077 222.594,640.077 
		222.594,562.668 	"/>
	<g>
		<defs>
			<rect id="SVGID_1_" x="-14.498" y="-14" width="560.228" height="725"/>
		</defs>
		<clipPath id="SVGID_2_">
			<use xlink:href="#SVGID_1_"  overflow="visible"/>
		</clipPath>
		<g clip-path="url(#SVGID_2_)">
			<defs>
				<rect id="SVGID_3_" x="-14.498" y="-14" width="560.228" height="725"/>
			</defs>
			<clipPath id="SVGID_4_">
				<use xlink:href="#SVGID_3_"  overflow="visible"/>
			</clipPath>
			<path clip-path="url(#SVGID_4_)" fill="#F9F5FA" d="M386.555,326.57c0.453,1.233-0.177,2.6-1.409,3.055
				c-1.233,0.453-2.601-0.179-3.054-1.412c-0.453-1.231,0.178-2.599,1.41-3.054C384.734,324.707,386.102,325.338,386.555,326.57"/>
			<path clip-path="url(#SVGID_4_)" fill="#FFFFFF" stroke="#ED1F24" stroke-miterlimit="10" d="M499.447,229.597
				c23.471,35.781,37.12,78.582,37.12,124.571"/>
			<path clip-path="url(#SVGID_4_)" fill="#FFFFFF" stroke="#ED1F24" stroke-miterlimit="10" d="M164.995,178.258
				c39.69-33.792,87.937-51.516,144.15-51.516c57.713,0,108.672,19.981,148.771,55.406"/>
			<path clip-path="url(#SVGID_4_)" fill="#FFFFFF" stroke="#ED1F24" stroke-miterlimit="10" d="M222.594,562.668
				c-88.927-34.336-140.876-116.947-140.876-208.5c0-45.505,15.501-91.126,38.52-126.678"/>
			<path clip-path="url(#SVGID_4_)" fill="#FFFFFF" stroke="#ED1F24" stroke-miterlimit="10" d="M536.567,354.167
				C534.5,465.949,476.24,532,395.476,562.668"/>
			<polyline clip-path="url(#SVGID_4_)" fill="#FFFFFF" stroke="#ED1F24" stroke-miterlimit="10" points="457.916,182.148 
				509.192,167.978 499.447,229.597 			"/>
			<path clip-path="url(#SVGID_4_)" fill="#FFFFFF" stroke="#000000" stroke-miterlimit="10" d="M147.387,179.141"/>
			
				<line clip-path="url(#SVGID_4_)" fill="#FFFFFF" stroke="#000000" stroke-miterlimit="10" x1="162.426" y1="241.131" x2="208.203" y2="199.114"/>
			<polyline clip-path="url(#SVGID_4_)" fill="#FFFFFF" stroke="#ED1F24" stroke-miterlimit="10" points="164.995,178.258 
				110.111,166.898 120.238,227.49 			"/>
			<path clip-path="url(#SVGID_4_)" fill="#FFFFFF" d="M534.285,352.849"/>
			<path clip-path="url(#SVGID_4_)" fill="#FFFFFF" d="M309.375,127.938"/>
			<path clip-path="url(#SVGID_4_)" fill="#FFFFFF" d="M81.806,348.5"/>
			<path clip-path="url(#SVGID_4_)" fill="#FFFFFF" d="M536.489,348.5"/>
		</g>
	</g>
</g>
<g id="Bear">
	<g>
		<defs>
			<rect id="SVGID_5_" x="1" y="-2" width="612" height="792"/>
		</defs>
		<clipPath id="SVGID_6_">
			<use xlink:href="#SVGID_5_"  overflow="visible"/>
		</clipPath>
		<g clip-path="url(#SVGID_6_)">
			<defs>
				<rect id="SVGID_7_" x="1" y="-2" width="612" height="792"/>
			</defs>
			<clipPath id="SVGID_8_">
				<use xlink:href="#SVGID_7_"  overflow="visible"/>
			</clipPath>
			<path clip-path="url(#SVGID_8_)" fill="#F9F5FA" d="M439.115,370.044c0.495,1.347-0.193,2.84-1.539,3.337
				c-1.347,0.495-2.841-0.195-3.337-1.542c-0.494-1.345,0.195-2.839,1.541-3.336C437.127,368.008,438.621,368.698,439.115,370.044"
				/>
			<path clip-path="url(#SVGID_8_)" stroke="#000000" stroke-miterlimit="10" d="M512.996,355.194
				c0,112.359-91.084,203.444-203.442,203.444c-112.359,0-203.446-91.085-203.446-203.444c0-112.36,91.086-203.445,203.446-203.445
				C421.912,151.749,512.996,242.834,512.996,355.194"/>
			<polygon clip-path="url(#SVGID_8_)" fill="#FFFFFF" stroke="#000000" stroke-width="5" stroke-miterlimit="10" points="
				400.76,217.456 488.508,188.636 472.661,283.45 			"/>
			<polygon clip-path="url(#SVGID_8_)" fill="#0F172E" points="161.123,461.492 312.679,248.991 460.354,459.571 			"/>
			<polygon clip-path="url(#SVGID_8_)" fill="#FFFFFF" stroke="#000000" stroke-width="5" stroke-miterlimit="10" points="
				219.256,216.49 131.507,187.671 147.354,282.485 			"/>
			<polygon clip-path="url(#SVGID_8_)" fill="#FFFFFF" points="242.316,538.382 139.783,454.256 116.541,325.367 183.464,212.024 
				311.674,158 435.018,212.024 501.94,325.367 478.698,454.256 376.165,538.382 			"/>
		</g>
	</g>
</g>
<g id="Text">
	<g>
		<path d="M245.836,195.538l-2.978,5.298c1.56,0.138,2.886,0.787,3.978,1.947c1.085,1.19,1.627,2.589,1.627,4.2
			c0,1.712-0.592,3.162-1.776,4.352c-1.177,1.189-2.599,1.784-4.265,1.784c-1.673,0-3.091-0.595-4.254-1.784
			c-1.177-1.19-1.766-2.64-1.766-4.352c0-1.049,0.271-2.061,0.739-2.965c0.085-0.165,0.237-0.486,0.313-0.604l4.457-7.898
			L245.836,195.538z M245.049,206.972c0-1.433-1.17-2.655-2.595-2.655l-0.011,0.011c-1.427,0-2.584,1.208-2.584,2.655
			c0,1.434,1.163,2.633,2.595,2.633C243.873,209.616,245.049,208.404,245.049,206.972z"/>
		<path d="M254.714,195.44v17.614h-3.446v-12.958l-1.733,0.522v-3.678L254.714,195.44z"/>
		<path d="M264.152,207.298c0-0.849-0.358-1.604-1.074-2.268c-0.716-0.664-1.748-1.028-3.095-1.094l0.723-1.458
			c0.9-0.174,1.556-0.477,1.967-0.909s0.617-0.908,0.617-1.431l-0.032,0.022c0-0.761-0.623-1.415-1.382-1.415
			c-0.703,0-1.242,0.52-1.351,1.121l-3.424-0.75c0.448-2.089,2.346-3.938,4.775-3.938c1.333,0,2.481,0.486,3.446,1.458
			c0.95,0.986,1.425,2.165,1.425,3.536c0,1.117-0.315,2.111-0.946,2.981c0.057,0.043,0.096,0.076,0.117,0.098
			c1.142,1.124,1.712,2.48,1.712,4.069c0,1.596-0.571,2.952-1.712,4.069c-1.113,1.11-2.46,1.665-4.041,1.665
			c-1.305,0-2.475-0.399-3.51-1.197c-1.057-0.82-1.741-1.868-2.053-3.144l3.382-0.881c0.192,0.883,1.124,1.632,2.191,1.632
			C263.102,209.463,264.152,208.542,264.152,207.298z"/>
		<path d="M277.125,206.929c0-0.718-0.262-1.338-0.787-1.86c-0.46-0.458-0.867-0.816-1.691-0.816v-0.011
			c-0.815,0-1.427,0.083-1.834,0.25c-0.408,0.167-0.949,0.551-1.622,1.153l-1.915-1.012l0.872-9.117h9.157v3.503h-6.296
			l-0.192,2.067c0.718-0.225,0.924-0.25,1.83-0.25c1.56,0,2.96,0.6,4.201,1.801c1.241,1.2,1.861,2.627,1.861,4.281
			c0,1.705-0.613,3.152-1.84,4.341c-1.227,1.197-2.701,1.795-4.424,1.795c-2.704,0-4.889-1.712-5.743-3.699l3.425-1.121
			c0.532,0.871,1.305,1.306,2.318,1.306C275.892,209.54,277.125,208.398,277.125,206.929z"/>
		<path d="M299.95,195.516v3.492h-4.212v14.045h-3.457v-14.045h-4.222v-3.492H299.95z"/>
		<path d="M304.883,195.516v7.017h5.732v-7.017h3.436v17.538h-3.436v-7.028h-5.732v7.028h-3.436v-17.538H304.883z"/>
		<path d="M323.365,195.157l7.828,17.897h-3.732l-1.16-2.666h-5.871l-1.158,2.666h-3.723L323.365,195.157z M324.939,207.277
			l-1.562-3.71l-1.586,3.71H324.939z"/>
		<path d="M343.02,205.209v-9.737h3.457v17.94l-10.338-10.074v9.737h-3.445v-17.93L343.02,205.209z"/>
		<path d="M352.049,195.516v7.757l4.393-7.757h3.979l-5.074,8.91l5.893,8.627h-4.191l-4.998-7.354v7.354h-3.436v-17.538H352.049z"/>
		<path d="M366.449,209.601c0.951,0,2.002-0.809,2.002-1.782c0-1.601-2.102-1.825-3.287-2.245c-2.09-0.729-3.936-2.484-3.936-4.873
			c0-2.958,2.346-5.341,5.236-5.341c2.637,0,4.82,2,5.174,4.602l-3.422,0.739c0-0.963-0.791-1.771-1.73-1.771
			c-0.957,0-1.748,0.809-1.748,1.782c0,1.58,1.955,2,3.146,2.361c2.162,0.639,4.07,2.325,4.07,4.766c0,2.958-2.594,5.346-5.48,5.346
			c-2.652,0-5.049-1.989-5.439-4.601l3.422-0.745c0,0.979,1.041,1.777,2.008,1.777L366.449,209.601z"/>
		<path d="M379.732,211.367c0-1.228,0.996-2.252,2.201-2.252c1.195,0,2.201,1.03,2.201,2.252c0,1.232-1,2.241-2.201,2.241
			C380.725,213.608,379.732,212.605,379.732,211.367z"/>
		<path d="M386.053,211.367c0-1.228,0.998-2.252,2.203-2.252c1.193,0,2.201,1.03,2.201,2.252c0,1.232-1.002,2.241-2.201,2.241
			C387.045,213.608,386.053,212.605,386.053,211.367z"/>
		<path d="M392.375,211.367c0-1.228,0.996-2.252,2.201-2.252c1.195,0,2.201,1.03,2.201,2.252c0,1.232-1,2.241-2.201,2.241
			C393.367,213.608,392.375,212.605,392.375,211.367z"/>
	</g>
	<g>
		<g>
			<path d="M225.392,505.629l3.818,8.609h-1.821l-0.565-1.282h-2.864l-0.565,1.282h-1.816L225.392,505.629z M226.16,511.459
				l-0.763-1.784l-0.773,1.784H226.16z"/>
			<path d="M234.977,510.465v-4.685h1.686v8.631l-5.042-4.847v4.685h-1.681v-8.626L234.977,510.465z"/>
			<path d="M239.929,505.802c1.313,0,2.342,0.526,3.056,1.24c0.747,0.757,1.121,1.752,1.121,2.985s-0.374,2.226-1.121,2.976
				c-0.823,0.823-1.842,1.235-3.056,1.235h-2.226v-8.432h2.226V505.802z M239.923,507.481h-0.545v5.066h0.561
				c1.508,0,2.49-1.01,2.49-2.533C242.429,508.505,241.43,507.481,239.923,507.481z"/>
			<path d="M251.449,505.629l3.818,8.609h-1.821l-0.565-1.282h-2.864l-0.565,1.282h-1.816L251.449,505.629z M252.217,511.459
				l-0.763-1.784l-0.773,1.784H252.217z"/>
			<path d="M257.677,505.802v6.751h3.362v1.686h-5.043v-8.437H257.677z"/>
			<path d="M263.448,505.802v6.751h3.362v1.686h-5.042v-8.437H263.448z"/>
			<path d="M277.583,506.995c0.834,0.841,1.25,1.851,1.25,3.03c0,1.183-0.417,2.191-1.25,3.024c-0.83,0.831-1.83,1.246-2.999,1.246
				c-1.172-0.004-2.172-0.419-2.999-1.246c-0.83-0.837-1.245-1.846-1.245-3.024c0-1.176,0.415-2.187,1.245-3.03
				c0.833-0.841,1.833-1.262,2.999-1.262S276.749,506.154,277.583,506.995z M272.784,508.198c-0.498,0.51-0.747,1.115-0.747,1.816
				c0,0.708,0.249,1.313,0.747,1.816c0.495,0.499,1.095,0.748,1.8,0.748c0.695,0,1.293-0.249,1.795-0.748
				c0.501-0.499,0.752-1.104,0.752-1.816c0-0.705-0.25-1.311-0.752-1.816c-0.498-0.502-1.097-0.753-1.795-0.753
				C273.875,507.445,273.275,507.696,272.784,508.198z"/>
			<path d="M284.625,510.904v-5.103h1.691v5.107c0,0.942-0.331,1.747-0.991,2.413c-0.664,0.663-1.459,0.994-2.386,0.994
				c-0.938,0-1.736-0.331-2.397-0.994c-0.661-0.666-0.991-1.471-0.991-2.413v-5.107h1.691v5.103c0,0.92,0.772,1.696,1.691,1.696
				C283.844,512.601,284.625,511.818,284.625,510.904z"/>
			<path d="M287.357,505.802h2.729c0.931,0,1.684,0.354,2.189,0.858c0.509,0.514,0.81,0.981,0.81,1.915v0.22
				c0,0.569-0.177,1.104-0.529,1.607c-0.294,0.414-0.526,0.591-1.001,0.779l1.946,3.057h-2.055l-2.402-3.731v3.731h-1.681
				L287.357,505.802z M291.352,508.628c0-0.308-0.111-0.578-0.332-0.812c-0.218-0.214-0.632-0.335-1.038-0.335h-0.944v2.329h0.648
				v0.005h0.561C290.859,509.815,291.352,509.271,291.352,508.628z"/>
			<path d="M304.268,506.995c0.834,0.841,1.25,1.851,1.25,3.03c0,1.183-0.416,2.191-1.25,3.024c-0.83,0.831-1.83,1.246-2.999,1.246
				c-1.172-0.004-2.172-0.419-2.999-1.246c-0.83-0.837-1.245-1.846-1.245-3.024c0-1.176,0.415-2.187,1.245-3.03
				c0.833-0.841,1.833-1.262,2.999-1.262C302.434,505.733,303.434,506.154,304.268,506.995z M299.468,508.198
				c-0.498,0.51-0.747,1.115-0.747,1.816c0,0.708,0.249,1.313,0.747,1.816c0.495,0.499,1.095,0.748,1.8,0.748
				c0.695,0,1.294-0.249,1.796-0.748c0.501-0.499,0.752-1.104,0.752-1.816c0-0.705-0.251-1.311-0.752-1.816
				c-0.498-0.502-1.097-0.753-1.796-0.753C300.56,507.445,299.959,507.696,299.468,508.198z"/>
			<path d="M310.916,505.802v1.68h-2.055v6.757h-1.687v-6.757h-2.06v-1.68H310.916z"/>
			<path d="M313.319,505.802v3.375h2.796v-3.375h1.676v8.437h-1.676v-3.381h-2.796v3.381h-1.675v-8.437H313.319z"/>
			<path d="M323.875,505.78v1.69h-3.361v1.701h2.52v1.69h-2.52v1.701h3.361v1.686h-5.043v-8.469H323.875z"/>
			<path d="M324.602,505.802h2.73c0.93,0,1.684,0.354,2.189,0.858c0.508,0.514,0.809,0.981,0.809,1.915v0.22
				c0,0.569-0.176,1.104-0.529,1.607c-0.293,0.414-0.527,0.591-1.002,0.779l1.945,3.057h-2.053l-2.402-3.731v3.731h-1.682
				L324.602,505.802z M328.598,508.628c0-0.308-0.111-0.578-0.332-0.812c-0.219-0.214-0.633-0.335-1.039-0.335h-0.943v2.329h0.648
				v0.005h0.561C328.105,509.815,328.598,509.271,328.598,508.628z"/>
			<path d="M336.912,512.577c0.465,0,0.977-0.389,0.977-0.857c0-0.77-1.025-0.877-1.604-1.079c-1.02-0.351-1.92-1.195-1.92-2.345
				c0-1.423,1.145-2.568,2.555-2.568c1.285,0,2.352,0.962,2.523,2.213l-1.668,0.355c0-0.463-0.387-0.852-0.846-0.852
				c-0.467,0-0.852,0.389-0.852,0.857c0,0.76,0.953,0.962,1.535,1.136c1.055,0.308,1.984,1.118,1.984,2.293
				c0,1.423-1.266,2.571-2.672,2.571c-1.295,0-2.463-0.957-2.654-2.213l1.67-0.358c0,0.471,0.506,0.854,0.979,0.854L336.912,512.577
				z"/>
			<path d="M340.326,511.705v-5.903h2.938c0.812,0,1.504,0.287,2.074,0.863c0.578,0.579,0.867,1.277,0.867,2.094
				c0,0.823-0.289,1.518-0.867,2.083c-0.576,0.575-1.27,0.863-2.074,0.863h-1.256v2.533h-1.682V511.705z M343.264,507.481h-1.256
				v2.544l1.256,0.005c0.688,0,1.26-0.582,1.26-1.271S343.949,507.481,343.264,507.481z"/>
			<path d="M353.865,506.995c0.832,0.841,1.25,1.851,1.25,3.03c0,1.183-0.418,2.191-1.25,3.024c-0.83,0.831-1.83,1.246-3,1.246
				c-1.172-0.004-2.172-0.419-2.998-1.246c-0.83-0.837-1.244-1.846-1.244-3.024c0-1.176,0.414-2.187,1.244-3.03
				c0.834-0.841,1.834-1.262,2.998-1.262C352.031,505.733,353.031,506.154,353.865,506.995z M349.066,508.198
				c-0.498,0.51-0.748,1.115-0.748,1.816c0,0.708,0.25,1.313,0.748,1.816c0.494,0.499,1.094,0.748,1.799,0.748
				c0.695,0,1.295-0.249,1.795-0.748c0.502-0.499,0.754-1.104,0.754-1.816c0-0.705-0.252-1.311-0.754-1.816
				c-0.498-0.502-1.096-0.753-1.795-0.753C350.156,507.445,349.557,507.696,349.066,508.198z"/>
			<path d="M360.871,510.465v-4.685h1.686v8.631l-5.041-4.847v4.685h-1.682v-8.626L360.871,510.465z"/>
			<path d="M365.928,512.577c0.465,0,0.977-0.389,0.977-0.857c0-0.77-1.025-0.877-1.604-1.079c-1.02-0.351-1.92-1.195-1.92-2.345
				c0-1.423,1.145-2.568,2.555-2.568c1.285,0,2.352,0.962,2.523,2.213l-1.668,0.355c0-0.463-0.387-0.852-0.846-0.852
				c-0.467,0-0.852,0.389-0.852,0.857c0,0.76,0.953,0.962,1.535,1.136c1.055,0.308,1.984,1.118,1.984,2.293
				c0,1.423-1.266,2.571-2.672,2.571c-1.295,0-2.463-0.957-2.654-2.213l1.67-0.358c0,0.471,0.506,0.854,0.979,0.854L365.928,512.577
				z"/>
			<path d="M376.273,506.995c0.834,0.841,1.25,1.851,1.25,3.03c0,1.183-0.416,2.191-1.25,3.024c-0.83,0.831-1.83,1.246-2.998,1.246
				c-1.172-0.004-2.172-0.419-2.998-1.246c-0.83-0.837-1.246-1.846-1.246-3.024c0-1.176,0.416-2.187,1.246-3.03
				c0.832-0.841,1.832-1.262,2.998-1.262S375.439,506.154,376.273,506.995z M371.475,508.198c-0.498,0.51-0.746,1.115-0.746,1.816
				c0,0.708,0.248,1.313,0.746,1.816c0.494,0.499,1.096,0.748,1.801,0.748c0.695,0,1.293-0.249,1.795-0.748s0.752-1.104,0.752-1.816
				c0-0.705-0.25-1.311-0.752-1.816c-0.498-0.502-1.096-0.753-1.795-0.753C372.566,507.445,371.967,507.696,371.475,508.198z"/>
			<path d="M378.242,505.802h2.73c0.93,0,1.684,0.354,2.189,0.858c0.508,0.514,0.809,0.981,0.809,1.915v0.22
				c0,0.569-0.176,1.104-0.529,1.607c-0.293,0.414-0.527,0.591-1.002,0.779l1.945,3.057h-2.053l-2.402-3.731v3.731h-1.682
				L378.242,505.802z M382.238,508.628c0-0.308-0.111-0.578-0.332-0.812c-0.219-0.214-0.633-0.335-1.039-0.335h-0.943v2.329h0.648
				v0.005h0.561C381.746,509.815,382.238,509.271,382.238,508.628z"/>
			<path d="M387.439,512.577c0.465,0,0.977-0.389,0.977-0.857c0-0.77-1.025-0.877-1.604-1.079c-1.02-0.351-1.92-1.195-1.92-2.345
				c0-1.423,1.145-2.568,2.555-2.568c1.285,0,2.352,0.962,2.523,2.213l-1.668,0.355c0-0.463-0.387-0.852-0.846-0.852
				c-0.467,0-0.852,0.389-0.852,0.857c0,0.76,0.953,0.962,1.535,1.136c1.055,0.308,1.984,1.118,1.984,2.293
				c0,1.423-1.266,2.571-2.672,2.571c-1.295,0-2.463-0.957-2.654-2.213l1.67-0.358c0,0.471,0.506,0.854,0.979,0.854L387.439,512.577
				z"/>
		</g>
		<g>
			<path d="M262.815,520.941l3.818,8.609h-1.821l-0.565-1.282h-2.864l-0.565,1.282h-1.816L262.815,520.941z M263.583,526.771
				l-0.763-1.784l-0.773,1.784H263.583z"/>
			<path d="M272.399,525.777v-4.685h1.686v8.631l-5.042-4.847v4.685h-1.681v-8.626L272.399,525.777z"/>
			<path d="M277.352,521.114c1.313,0,2.342,0.526,3.056,1.24c0.747,0.757,1.121,1.752,1.121,2.985s-0.374,2.226-1.121,2.976
				c-0.823,0.823-1.842,1.235-3.056,1.235h-2.226v-8.432h2.226V521.114z M277.346,522.794h-0.545v5.066h0.561
				c1.508,0,2.49-1.01,2.49-2.533C279.852,523.817,278.853,522.794,277.346,522.794z"/>
			<path d="M287.701,527.89c0.464,0,0.977-0.389,0.977-0.857c0-0.77-1.025-0.877-1.604-1.079c-1.02-0.351-1.92-1.195-1.92-2.345
				c0-1.423,1.144-2.568,2.554-2.568c1.286,0,2.352,0.962,2.524,2.213l-1.669,0.355c0-0.463-0.386-0.852-0.845-0.852
				c-0.467,0-0.853,0.389-0.853,0.857c0,0.76,0.954,0.962,1.535,1.136c1.055,0.308,1.986,1.118,1.986,2.293
				c0,1.423-1.266,2.571-2.673,2.571c-1.294,0-2.463-0.957-2.653-2.213l1.669-0.358c0,0.471,0.507,0.854,0.979,0.854L287.701,527.89
				z"/>
			<path d="M296.189,526.217v-5.103h1.691v5.107c0,0.942-0.331,1.747-0.991,2.413c-0.664,0.663-1.459,0.994-2.386,0.994
				c-0.938,0-1.736-0.331-2.397-0.994c-0.661-0.666-0.991-1.471-0.991-2.413v-5.107h1.691v5.103c0,0.92,0.772,1.696,1.691,1.696
				C295.408,527.913,296.189,527.131,296.189,526.217z"/>
			<path d="M298.92,527.018v-5.903h2.936c0.813,0,1.505,0.287,2.075,0.863c0.578,0.579,0.867,1.277,0.867,2.094
				c0,0.823-0.289,1.518-0.867,2.083c-0.578,0.575-1.27,0.863-2.075,0.863h-1.255v2.533h-1.681V527.018z M301.856,522.794h-1.255
				v2.544l1.255,0.005c0.688,0,1.261-0.582,1.261-1.271S302.542,522.794,301.856,522.794z"/>
			<path d="M305.527,527.018v-5.903h2.936c0.812,0,1.504,0.287,2.075,0.863c0.577,0.579,0.866,1.277,0.866,2.094
				c0,0.823-0.289,1.518-0.866,2.083c-0.577,0.575-1.269,0.863-2.075,0.863h-1.256v2.533h-1.68V527.018z M308.463,522.794h-1.256
				v2.544l1.256,0.005c0.688,0,1.261-0.582,1.261-1.271S309.148,522.794,308.463,522.794z"/>
			<path d="M319.064,522.308c0.834,0.841,1.25,1.851,1.25,3.03c0,1.183-0.416,2.191-1.25,3.024c-0.83,0.831-1.83,1.246-2.998,1.246
				c-1.174-0.004-2.173-0.419-3-1.246c-0.83-0.837-1.244-1.846-1.244-3.024c0-1.176,0.414-2.187,1.244-3.03
				c0.834-0.841,1.834-1.262,3-1.262C317.23,521.046,318.23,521.467,319.064,522.308z M314.266,523.511
				c-0.498,0.51-0.748,1.115-0.748,1.816c0,0.708,0.25,1.313,0.748,1.816c0.494,0.499,1.094,0.748,1.801,0.748
				c0.695,0,1.293-0.249,1.795-0.748c0.5-0.499,0.752-1.104,0.752-1.816c0-0.705-0.252-1.311-0.752-1.816
				c-0.498-0.502-1.098-0.753-1.795-0.753C315.357,522.758,314.756,523.009,314.266,523.511z"/>
			<path d="M321.033,521.114h2.729c0.932,0,1.684,0.354,2.189,0.858c0.51,0.514,0.809,0.981,0.809,1.915v0.22
				c0,0.569-0.176,1.104-0.529,1.607c-0.293,0.414-0.525,0.591-1,0.779l1.945,3.057h-2.055l-2.402-3.731v3.731h-1.68
				L321.033,521.114z M325.027,523.94c0-0.308-0.109-0.578-0.332-0.812c-0.217-0.214-0.633-0.335-1.037-0.335h-0.943v2.329h0.648
				v0.005h0.559C324.535,525.128,325.027,524.583,325.027,523.94z"/>
			<path d="M333.389,521.114v1.68h-2.055v6.757h-1.686v-6.757h-2.061v-1.68H333.389z"/>
			<path d="M339.158,521.093v1.69h-3.361v1.701h2.521v1.69h-2.521v1.701h3.361v1.686h-5.043v-8.469H339.158z"/>
			<path d="M339.887,521.114h2.729c0.932,0,1.684,0.354,2.189,0.858c0.51,0.514,0.809,0.981,0.809,1.915v0.22
				c0,0.569-0.176,1.104-0.529,1.607c-0.293,0.414-0.525,0.591-1,0.779l1.945,3.057h-2.055l-2.402-3.731v3.731h-1.68
				L339.887,521.114z M343.881,523.94c0-0.308-0.109-0.578-0.332-0.812c-0.217-0.214-0.633-0.335-1.037-0.335h-0.943v2.329h0.648
				v0.005h0.559C343.389,525.128,343.881,524.583,343.881,523.94z"/>
			<path d="M349.084,527.89c0.463,0,0.977-0.389,0.977-0.857c0-0.77-1.025-0.877-1.604-1.079c-1.02-0.351-1.92-1.195-1.92-2.345
				c0-1.423,1.143-2.568,2.555-2.568c1.285,0,2.35,0.962,2.523,2.213l-1.67,0.355c0-0.463-0.385-0.852-0.844-0.852
				c-0.467,0-0.854,0.389-0.854,0.857c0,0.76,0.955,0.962,1.535,1.136c1.055,0.308,1.986,1.118,1.986,2.293
				c0,1.423-1.266,2.571-2.674,2.571c-1.293,0-2.463-0.957-2.652-2.213l1.668-0.358c0,0.471,0.508,0.854,0.98,0.854L349.084,527.89z
				"/>
			<path d="M352.445,528.739c0-0.591,0.486-1.062,1.074-1.062c0.584,0,1.074,0.496,1.074,1.084c0,0.593-0.488,1.057-1.074,1.057
				C352.93,529.817,352.445,529.335,352.445,528.739z M352.539,521.114h1.941l-0.266,5.992h-1.4
				C352.752,525.008,352.631,523.18,352.539,521.114z"/>
		</g>
	</g>
</g>
<g id="Logos">
	<g>
		<g>
			<path fill-rule="evenodd" clip-rule="evenodd" fill="#191717" d="M353.938,306.156c-10.434,0-18.895,8.458-18.895,18.894
				c0,8.347,5.414,15.43,12.922,17.929c0.942,0.176,1.29-0.411,1.29-0.908c0-0.452-0.018-1.941-0.025-3.52
				c-5.255,1.144-6.364-2.229-6.364-2.229c-0.86-2.183-2.098-2.764-2.098-2.764c-1.717-1.173,0.126-1.15,0.126-1.15
				c1.898,0.133,2.899,1.949,2.899,1.949c1.684,2.888,4.418,2.053,5.497,1.569c0.168-1.218,0.66-2.054,1.199-2.526
				c-4.195-0.477-8.607-2.095-8.607-9.339c0-2.062,0.737-3.746,1.946-5.07c-0.194-0.476-0.844-2.397,0.183-5
				c0,0,1.588-0.508,5.198,1.938c1.505-0.418,3.123-0.628,4.729-0.638c1.604,0.009,3.223,0.219,4.733,0.638
				c3.606-2.445,5.189-1.938,5.189-1.938c1.028,2.602,0.382,4.524,0.187,5c1.211,1.324,1.944,3.009,1.944,5.07
				c0,7.259-4.42,8.855-8.629,9.326c0.679,0.586,1.282,1.736,1.282,3.498c0,2.526-0.021,4.562-0.021,5.187
				c0,0.501,0.34,1.09,1.298,0.906c7.502-2.501,12.911-9.583,12.911-17.927C372.833,314.613,364.371,306.156,353.938,306.156z"/>
			<path fill="#191717" stroke="#000000" stroke-miterlimit="10" d="M341.968,333.109"/>
			<path fill="#191717" stroke="#000000" stroke-miterlimit="10" d="M342.786,333.941"/>
			<path fill="#191717" stroke="#000000" stroke-miterlimit="10" d="M344.731,336.277"/>
			<path fill="#191717" stroke="#000000" stroke-miterlimit="10" d="M346.139,336.886"/>
			<path fill="#191717" stroke="#000000" stroke-miterlimit="10" d="M347.685,337"/>
			<path fill="#191717" stroke="#000000" stroke-miterlimit="10" d="M349.125,336.753"/>
		</g>
		<g>
			<path fill="#100E0F" stroke="#000000" stroke-miterlimit="10" d="M399.654,323.407h-8.441c-0.217,0-0.392,0.176-0.392,0.396
				v4.124c0,0.216,0.175,0.396,0.392,0.396h3.293v5.123c0,0-0.737,0.252-2.781,0.252c-2.411,0-5.78-0.879-5.78-8.287
				c0-7.406,3.507-8.382,6.8-8.382c2.851,0,4.076,0.502,4.858,0.742c0.247,0.078,0.474-0.168,0.474-0.382l0.939-3.987
				c0-0.103-0.032-0.226-0.149-0.311c-0.316-0.226-2.253-1.309-7.142-1.309c-5.636,0-11.412,2.396-11.412,13.919
				c0,11.522,6.615,13.239,12.189,13.239c4.617,0,7.418-1.973,7.418-1.973c0.113-0.067,0.128-0.225,0.128-0.301v-12.864
				C400.048,323.583,399.872,323.407,399.654,323.407z"/>
			<path fill="#100E0F" stroke="#000000" stroke-miterlimit="10" d="M443.145,313.165c0-0.223-0.176-0.401-0.393-0.401h-4.75
				c-0.216,0-0.396,0.178-0.396,0.401l0.003,9.182h-7.408v-9.182c0-0.223-0.175-0.401-0.39-0.401h-4.753
				c-0.217,0-0.391,0.178-0.391,0.401v24.862c0,0.217,0.174,0.398,0.391,0.398h4.753c0.215,0,0.39-0.181,0.39-0.398v-10.638h7.408
				l-0.015,10.638c0,0.217,0.176,0.398,0.395,0.398h4.763c0.215,0,0.393-0.181,0.393-0.398V313.165z"/>
			<g>
				<g>
					<path fill="#100E0F" stroke="#000000" stroke-miterlimit="10" d="M408.621,316.428c0-1.716-1.372-3.097-3.066-3.097
						c-1.688,0-3.06,1.38-3.06,3.097c0,1.705,1.371,3.094,3.06,3.094C407.249,319.521,408.621,318.133,408.621,316.428z"/>
					<path fill="#100E0F" stroke="#000000" stroke-miterlimit="10" d="M408.281,332.781c0-0.638,0-11.477,0-11.477
						c0-0.219-0.176-0.398-0.396-0.398h-4.733c-0.221,0-0.413,0.223-0.413,0.444c0,0,0,13.81,0,16.446
						c0,0.478,0.301,0.624,0.688,0.624c0,0,2.022,0,4.269,0c0.469,0,0.585-0.226,0.585-0.634
						C408.281,336.905,408.281,333.45,408.281,332.781z"/>
				</g>
			</g>
			<path fill="#100E0F" stroke="#000000" stroke-miterlimit="10" d="M461.202,320.948h-4.715c-0.218,0-0.394,0.177-0.394,0.393
				v12.194c0,0-1.196,0.88-2.899,0.88c-1.697,0-2.148-0.777-2.148-2.44c0-1.666,0-10.633,0-10.633c0-0.216-0.175-0.393-0.394-0.393
				h-4.786c-0.215,0-0.393,0.177-0.393,0.393c0,0,0,6.492,0,11.44c0,4.94,2.756,6.151,6.548,6.151c3.11,0,5.619-1.715,5.619-1.715
				s0.117,0.905,0.172,1.014c0.057,0.105,0.195,0.212,0.349,0.212l3.041-0.017c0.218,0,0.396-0.174,0.396-0.393v-16.693
				C461.598,321.125,461.42,320.948,461.202,320.948z"/>
			<path fill="#100E0F" stroke="#000000" stroke-miterlimit="10" d="M474.091,320.385c-2.68,0-4.501,1.198-4.501,1.198v-8.418
				c0-0.223-0.175-0.401-0.387-0.401h-4.771c-0.219,0-0.394,0.178-0.394,0.401v24.862c0,0.217,0.175,0.398,0.394,0.398
				c0,0,3.304,0,3.308,0c0.147,0,0.258-0.078,0.344-0.211c0.082-0.135,0.202-1.147,0.202-1.147s1.951,1.845,5.639,1.845
				c4.329,0,6.81-2.192,6.81-9.86C480.734,321.391,476.769,320.385,474.091,320.385z M472.228,334.4
				c-1.631-0.053-2.744-0.796-2.744-0.796v-7.873c0,0,1.094-0.674,2.44-0.794c1.694-0.149,3.332,0.364,3.332,4.414
				C475.256,333.623,474.521,334.465,472.228,334.4z"/>
			<path fill="#100E0F" stroke="#000000" stroke-miterlimit="10" d="M421.938,320.905h-3.564l-0.005-4.706
				c0-0.181-0.094-0.27-0.3-0.27h-4.857c-0.189,0-0.288,0.084-0.288,0.265v4.866c0,0-2.434,0.588-2.602,0.635
				c-0.161,0.045-0.282,0.2-0.282,0.379v3.058c0,0.221,0.177,0.397,0.392,0.397h2.492c0,0,0,3.199,0,7.358
				c0,5.463,3.832,5.997,6.42,5.997c1.182,0,2.595-0.378,2.825-0.464c0.141-0.051,0.223-0.201,0.223-0.356l0.006-3.364
				c0-0.223-0.183-0.398-0.394-0.398c-0.207,0-0.736,0.085-1.285,0.085c-1.754,0-2.345-0.816-2.345-1.866c0-1.055,0-6.994,0-6.994
				h3.564c0.215,0,0.39-0.177,0.39-0.397v-3.829C422.327,321.081,422.152,320.905,421.938,320.905z"/>
		</g>
	</g>
	<g>
		<path stroke="#000000" stroke-width="0.5" stroke-miterlimit="10" d="M414.271,443.59c0.062-0.031,0.116-0.046,0.162-0.046
			c0.56,0.015,1.311,0,2.26-0.045h0.188h0.138h0.303h0.024c0.107,0,0.206,0.041,0.289,0.123c0.086,0.082,0.138,0.184,0.151,0.302
			c0,0.118-0.047,0.226-0.138,0.321c-0.095,0.096-0.195,0.146-0.303,0.146c-0.048,0.03-0.141,0.044-0.279,0.044H416.9h-0.161
			c-0.962,0.03-1.584,0.044-1.862,0.044c0.048,2.865,0.072,5.269,0.072,7.211c0.09-0.016,0.239-0.021,0.439-0.021
			c0.233,0,0.411,0.006,0.536,0.021h0.323h0.189c0.215,0,0.381,0.053,0.488,0.154c0.061,0.075,0.093,0.179,0.093,0.312
			c0,0.119-0.046,0.228-0.138,0.322c-0.095,0.099-0.195,0.144-0.305,0.144c-0.064-0.014-0.179-0.019-0.35-0.019h-0.324
			c-0.125-0.016-0.297-0.024-0.514-0.024c-0.185,0-0.326,0.009-0.42,0.024c0.05,3.735,0.07,7.119,0.07,10.146
			c0.701,0.028,1.521,0.045,2.468,0.045c0.107,0,0.21,0.049,0.303,0.145c0.093,0.097,0.14,0.202,0.14,0.321
			s-0.044,0.224-0.128,0.311c-0.085,0.09-0.19,0.135-0.314,0.135l-2.956-0.045c-0.107,0-0.21-0.054-0.303-0.156
			s-0.139-0.214-0.139-0.333c0-0.074,0.014-0.117,0.046-0.133c0-5.325-0.062-11.667-0.187-19.024
			C413.969,443.819,414.069,443.679,414.271,443.59z"/>
		<path stroke="#000000" stroke-width="0.5" stroke-miterlimit="10" d="M407.7,442.304c0.104-0.106,0.223-0.158,0.356-0.158
			c0.137,0,0.261,0.048,0.372,0.146c0.108,0.097,0.163,0.212,0.163,0.342c0.07,1.82,0.12,4.841,0.155,9.063
			c0.236-0.146,0.442-0.43,0.611-0.852c0.341-0.714,0.604-1.678,0.792-2.888c0.185-1.21,0.278-2.425,0.278-3.644
			c0-0.634-0.051-1.146-0.153-1.535v-0.048c0-0.116,0.044-0.228,0.129-0.343c0.087-0.112,0.195-0.186,0.334-0.218h0.074
			c0.255,0,0.433,0.129,0.535,0.388c0.086,0.407,0.127,0.985,0.127,1.731c0,1.397-0.111,2.705-0.332,3.925
			c-0.237,1.316-0.509,2.331-0.813,3.046c-0.257,0.487-0.494,0.836-0.714,1.048c-0.021,0.032-0.072,0.072-0.155,0.121
			c0.066,0.015,0.157,0.045,0.271,0.085c0.107,0.039,0.196,0.085,0.267,0.134c0.389,0.227,0.729,0.578,1.019,1.048
			c0.476,0.747,0.858,1.853,1.148,3.315c0.424,2.176,0.637,4.442,0.637,6.799c0,0.131-0.054,0.248-0.167,0.354
			c-0.108,0.104-0.231,0.158-0.368,0.158s-0.253-0.055-0.356-0.158c-0.103-0.105-0.155-0.223-0.155-0.354
			c0-2.29-0.211-4.5-0.634-6.628c-0.292-1.365-0.629-2.355-1.023-2.974c-0.322-0.521-0.671-0.78-1.044-0.78
			c-0.103,0-0.179,0.01-0.231,0.025h-0.074v1.218c0,1.432-0.009,2.729-0.023,3.899v5.239c0,0.113-0.053,0.224-0.155,0.329
			c-0.103,0.106-0.221,0.158-0.358,0.158c-0.136,0-0.257-0.049-0.367-0.146c-0.112-0.098-0.169-0.21-0.169-0.341v-5.239
			c0.018-1.171,0.026-2.468,0.026-3.899c0-4.742-0.051-8.749-0.152-12.015C407.548,442.526,407.598,442.408,407.7,442.304z"/>
		<path stroke="#000000" stroke-width="0.5" stroke-miterlimit="10" d="M388.316,453.248c0.121-3.446,0.2-6.282,0.232-8.511v-0.067
			v-0.068c0-0.09,0.009-0.156,0.022-0.203c0.094-0.211,0.251-0.314,0.466-0.314c0.138,0,0.253,0.044,0.336,0.136
			c0.087,0.09,0.129,0.202,0.129,0.338v0.089c0.373,2.137,0.752,4.14,1.139,6.005c0.047,0.209,0.202,0.963,0.466,2.257l0.115,0.566
			c0.141,0.586,0.241,1.053,0.304,1.399c0.031,0.027,0.053,0.126,0.072,0.292c0.06,0.271,0.098,0.475,0.115,0.61l0.091,0.451
			c0.2,0.962,0.427,2.016,0.675,3.161c0.031-0.287,0.139-0.903,0.325-1.854l0.837-4.672c0.667-3.536,1.354-6.456,2.071-8.757
			c0.029-0.121,0.101-0.212,0.22-0.271c0.116-0.062,0.236-0.067,0.359-0.023c0.233,0.046,0.349,0.196,0.349,0.451v0.046
			c-0.03,1.354-0.044,2.431-0.044,3.227c0,2.213,0.061,5.411,0.185,9.595l0.022,1.015l0.072,1.852l0.021,1.129
			c0.03,1.43,0.062,2.377,0.093,2.842c0,0.137-0.051,0.25-0.15,0.341c-0.103,0.09-0.221,0.136-0.364,0.136
			c-0.123,0-0.229-0.046-0.321-0.136c-0.093-0.091-0.141-0.204-0.141-0.341l-0.066-2.82l-0.026-1.106l-0.069-1.873l-0.025-1.016
			c0-0.226-0.007-0.392-0.021-0.496c-0.109-4.801-0.163-7.689-0.163-8.668c-0.309,1.28-0.598,2.604-0.858,3.973
			c-0.266,1.371-0.614,3.289-1.048,5.754c-0.201,1.176-0.403,2.282-0.604,3.319l-0.164,0.947c0,0.075-0.006,0.122-0.021,0.137
			c-0.077,0.18-0.22,0.271-0.421,0.271c-0.122,0-0.216-0.023-0.276-0.068c-0.14-0.104-0.219-0.211-0.235-0.315
			c-0.153-0.918-0.533-2.783-1.14-5.599l-0.091-0.451l-0.116-0.607l-0.071-0.319c-0.168-0.811-0.271-1.27-0.302-1.376l-0.139-0.722
			l-0.444-2.1c-0.044-0.3-0.151-0.82-0.322-1.557c0,0.226-0.012,0.399-0.023,0.518c0,0.469-0.033,1.635-0.092,3.501
			c-0.172,4.454-0.258,8.033-0.258,10.745c0,0.104-0.046,0.206-0.14,0.302c-0.093,0.098-0.201,0.146-0.325,0.146
			s-0.237-0.043-0.339-0.136c-0.097-0.089-0.15-0.193-0.15-0.312C388.06,460.802,388.146,457.203,388.316,453.248z"/>
		<path stroke="#000000" stroke-width="0.5" stroke-miterlimit="10" d="M403.817,488.795c-0.073,0.081-0.169,0.121-0.281,0.121
			l-2.672-0.04c-0.096,0-0.19-0.049-0.271-0.141c-0.084-0.094-0.127-0.195-0.127-0.301c0-0.067,0.013-0.108,0.043-0.12
			c0-4.807-0.058-10.533-0.171-17.176c0-0.174,0.093-0.299,0.276-0.38c0.056-0.027,0.104-0.041,0.146-0.041
			c0.501,0.014,1.184,0,2.038-0.04h0.167h0.125h0.275h0.019c0.1,0,0.186,0.035,0.265,0.11c0.076,0.073,0.122,0.164,0.138,0.271
			c0,0.106-0.042,0.205-0.128,0.291c-0.084,0.087-0.175,0.128-0.274,0.128c-0.041,0.029-0.123,0.042-0.249,0.042h-0.147h-0.148
			c-0.868,0.027-1.429,0.042-1.679,0.042c0.037,2.583,0.061,4.752,0.061,6.506c0.087-0.014,0.217-0.021,0.4-0.021
			c0.209,0,0.369,0.007,0.482,0.021h0.295h0.166c0.197,0,0.345,0.048,0.445,0.143c0.052,0.064,0.08,0.16,0.08,0.28
			c0,0.106-0.041,0.205-0.125,0.291c-0.083,0.087-0.176,0.132-0.273,0.132c-0.056-0.014-0.159-0.022-0.315-0.022h-0.294
			c-0.111-0.012-0.266-0.019-0.461-0.019c-0.17,0-0.295,0.007-0.378,0.019c0.042,3.376,0.064,6.429,0.064,9.161
			c0.628,0.027,1.371,0.04,2.227,0.04c0.097,0,0.186,0.044,0.273,0.131c0.083,0.089,0.127,0.185,0.127,0.292
			C403.937,488.622,403.896,488.715,403.817,488.795z"/>
		<path stroke="#000000" stroke-width="0.5" stroke-miterlimit="10" d="M419.075,475.904l-0.022,1.465
			c-0.045,1.528-0.068,2.753-0.068,3.677c0,0.576,0.009,0.972,0.023,1.185v1.226c-0.032,0.052-0.044,0.193-0.044,0.421
			c-0.018,0.254-0.024,0.649-0.024,1.185c0,0.911,0.045,1.848,0.136,2.812c0,0.12-0.042,0.219-0.125,0.291
			c-0.082,0.074-0.169,0.109-0.258,0.109h-0.045c-0.123,0-0.222-0.035-0.306-0.109c-0.085-0.072-0.124-0.157-0.124-0.251
			c-0.03-0.04-0.044-0.127-0.044-0.26v-0.02l-0.047-0.121c-0.075-0.857-0.229-1.912-0.461-3.163
			c-0.234-1.253-0.636-3.229-1.206-5.935c-0.016-0.093-0.03-0.178-0.046-0.251c-0.017-0.073-0.029-0.138-0.045-0.191
			c-0.136-0.604-0.246-1.124-0.328-1.567c-0.083-0.441-0.153-0.815-0.212-1.123c-0.062-0.255-0.11-0.495-0.147-0.723
			c-0.04-0.227-0.08-0.436-0.125-0.623h-0.044v0.201c-0.032,0.615-0.046,1.151-0.046,1.607l-0.134,3.493l-0.026,0.965
			c0,0.494-0.008,0.822-0.02,0.981c-0.062,1.395-0.092,2.82-0.092,4.279c0,0.724,0.016,1.621,0.044,2.69
			c0,0.108-0.041,0.2-0.121,0.281c-0.085,0.08-0.179,0.121-0.282,0.121h-0.184c0,0-0.043-0.037-0.132-0.111
			c-0.091-0.071-0.134-0.164-0.134-0.27c-0.047-0.871-0.072-1.849-0.072-2.932c0-1.381,0.032-2.74,0.092-4.078
			c0.018-0.162,0.023-0.489,0.023-0.984l0.023-0.963c0.105-2.584,0.165-4.278,0.181-5.081v-0.321v-0.181
			c-0.016-0.08-0.024-0.182-0.024-0.301v-1.005c-0.015-0.2-0.025-0.469-0.025-0.804c0-0.415,0.025-0.724,0.068-0.924
			c0.046-0.308,0.196-0.481,0.454-0.521h0.066c0.121,0,0.235,0.047,0.34,0.14c0.118,0.096,0.219,0.297,0.302,0.604
			c0.084,0.308,0.185,0.763,0.307,1.366v0.02h0.023v0.019h-0.023c0.029,0.2,0.051,0.314,0.067,0.341
			c0.148,0.832,0.504,2.586,1.06,5.263c0.017,0.055,0.03,0.114,0.044,0.182c0.017,0.067,0.029,0.146,0.047,0.239
			c0.284,1.314,0.518,2.465,0.698,3.454l0.068-0.019l-0.023-0.784c0-0.319,0.032-1.418,0.092-3.294c0-0.321,0.014-0.895,0.044-1.727
			l0.044-1.626c0.047-1.688,0.07-2.938,0.07-3.756c0-0.105,0.042-0.201,0.132-0.281c0.092-0.079,0.198-0.12,0.317-0.12
			c0.09,0,0.183,0.041,0.271,0.12c0.089,0.08,0.135,0.176,0.135,0.281C419.188,471.813,419.15,473.615,419.075,475.904z"/>
		<path stroke="#000000" stroke-width="0.5" stroke-linecap="round" stroke-linejoin="round" stroke-miterlimit="10" d="
			M443.868,454.783c-1.377-2.009-3.544-3.615-5.521-5.035c-7.667-5.491-17.034-7.727-26.205-9.756
			c-7.017-1.551-15.865-0.412-20.288,0.518c-3.925,0.825-8.582,2.314-12.233,4.547c-0.994,0.604-1.912,1.266-2.725,1.982
			c-3.886,3.438-7.858,9.472-8.35,14.674c-0.215,2.273,1.781,3.725,1.35,5.479c-0.843,3.443,0.93,7.849,2.819,10.653
			c2.118,3.145,4.988,5.771,8.133,7.966c5.18,3.62,14.894,5.068,22.77,5.482c4.552,0.237,9.143-0.123,13.65-0.73
			c3.245-0.438,6.482-0.973,9.613-1.922c5.036-1.522,10.094-3.899,13.425-7.946c2.878-3.505,5.594-8.297,6.263-12.774
			C447.322,462.852,446.35,458.404,443.868,454.783z M445.246,467.919c-0.642,4.295-3.252,8.893-6.024,12.252
			c-3.202,3.882-8.065,6.16-12.911,7.622c-3.01,0.91-6.121,1.423-9.243,1.843c-4.337,0.583-8.752,0.931-13.128,0.702
			c-7.578-0.399-16.916-1.787-21.901-5.26c-3.021-2.103-5.781-4.625-7.817-7.641c-1.82-2.687-3.509-6.912-2.697-10.213
			c0.416-1.688-1.52-3.078-1.314-5.259c0.471-4.991,4.294-10.772,8.031-14.074c0.778-0.688,1.662-1.322,2.618-1.902
			c3.516-2.143,7.992-3.568,11.771-4.358c4.251-0.894,12.763-1.985,19.508-0.497c8.82,1.945,17.828,4.091,25.202,9.356
			c1.904,1.359,3.987,2.901,5.309,4.831C445.036,458.793,445.973,463.058,445.246,467.919z"/>
		<path stroke="#000000" stroke-width="0.5" stroke-miterlimit="10" d="M384.628,450.482c0.025-0.014,0.051-0.02,0.069-0.02
			c0.237,0.006,0.549,0,0.944-0.017h0.078h0.058h0.128h0.01c0.046,0,0.083,0.015,0.121,0.05c0.035,0.033,0.058,0.075,0.064,0.125
			c0,0.051-0.021,0.096-0.06,0.136c-0.039,0.041-0.08,0.061-0.126,0.061c-0.021,0.012-0.059,0.02-0.118,0.02h-0.068h-0.068
			c-0.4,0.011-0.659,0.019-0.779,0.019c0.021,1.196,0.031,2.201,0.031,3.015c0.036-0.007,0.102-0.011,0.186-0.011
			c0.098,0,0.171,0.004,0.225,0.011h0.135h0.077c0.09,0,0.16,0.021,0.204,0.064c0.026,0.03,0.039,0.074,0.039,0.129
			c0,0.051-0.018,0.095-0.058,0.137c-0.039,0.04-0.081,0.06-0.128,0.06c-0.023-0.007-0.071-0.01-0.144-0.01h-0.139
			c-0.05-0.006-0.122-0.009-0.212-0.009c-0.079,0-0.137,0.003-0.176,0.009c0.021,1.562,0.026,2.978,0.026,4.242
			c0.294,0.014,0.639,0.018,1.034,0.018c0.045,0,0.087,0.021,0.125,0.062c0.04,0.04,0.059,0.086,0.059,0.135
			s-0.016,0.092-0.053,0.13c-0.035,0.037-0.078,0.056-0.131,0.056l-1.234-0.019c-0.047,0-0.089-0.021-0.128-0.065
			c-0.04-0.041-0.061-0.089-0.061-0.139c0-0.031,0.007-0.05,0.021-0.058c0-2.226-0.025-4.876-0.078-7.951
			C384.502,450.579,384.545,450.521,384.628,450.482z"/>
		<path stroke="#000000" stroke-width="0.5" stroke-miterlimit="10" d="M381.605,450.769c0.006-0.049,0.03-0.093,0.074-0.13
			c0.041-0.035,0.092-0.056,0.151-0.056c0.051,0,0.093,0.021,0.131,0.061c0.035,0.041,0.05,0.085,0.044,0.134
			c-0.006,0.343-0.011,0.896-0.011,1.666v0.753c0,0.423,0.005,0.738,0.011,0.949c0.188,0,0.352,0.003,0.484,0.01h0.07h0.563
			c-0.007-0.117-0.011-0.292-0.011-0.521v-0.438v-0.632l-0.008-0.54c-0.006-0.303-0.012-0.677-0.012-1.116
			c0-0.056,0.018-0.103,0.053-0.14c0.035-0.038,0.087-0.054,0.143-0.054c0.054,0,0.102,0.021,0.145,0.06
			c0.04,0.04,0.059,0.084,0.059,0.134c0,0.435,0.008,0.804,0.012,1.108l0.01,0.548v0.632v0.42c0.032,2.352,0.049,4.109,0.049,5.274
			c0,0.05-0.02,0.093-0.062,0.134c-0.044,0.043-0.09,0.062-0.142,0.062c-0.054,0-0.098-0.019-0.138-0.062
			c-0.04-0.041-0.059-0.084-0.059-0.134c0-0.911-0.013-2.362-0.039-4.354h-0.582h-0.052c-0.133-0.006-0.289-0.008-0.465-0.008
			c0.006,0.1,0.008,0.282,0.008,0.547l0.011,0.54c0.04,1.441,0.058,2.517,0.058,3.229c0,0.049-0.018,0.093-0.058,0.13
			c-0.038,0.036-0.082,0.056-0.137,0.056c-0.051,0-0.097-0.02-0.143-0.056c-0.041-0.037-0.061-0.081-0.061-0.13
			c0-0.701-0.021-1.772-0.06-3.21l-0.019-0.969c-0.025-1.301-0.039-2.138-0.039-2.512
			C381.587,451.852,381.592,451.389,381.605,450.769z"/>
		<path stroke="#000000" stroke-width="0.5" stroke-miterlimit="10" d="M378.634,450.995c0.04-0.036,0.091-0.053,0.148-0.053
			l0.34,0.012l0.469-0.012c0.096,0,0.181-0.003,0.253-0.018c0.229-0.006,0.468-0.009,0.719-0.009c0.051,0,0.099,0.02,0.138,0.055
			c0.037,0.038,0.057,0.081,0.057,0.132c0,0.048-0.02,0.094-0.057,0.134c-0.039,0.04-0.087,0.061-0.138,0.061
			c-0.245,0-0.482,0.006-0.711,0.02c0.02,0.576,0.03,1.228,0.03,1.954c0,0.93-0.014,1.846-0.038,2.744l-0.011,0.603l0.011,0.856
			v0.325c0.004,0.201,0.008,0.467,0.008,0.8c0,0.293-0.004,0.501-0.008,0.624c-0.008,0.051-0.032,0.095-0.074,0.135
			c-0.041,0.041-0.086,0.06-0.131,0.053c-0.053,0-0.097-0.02-0.136-0.057c-0.04-0.037-0.061-0.08-0.061-0.131l0.012-0.624
			c0-0.333-0.006-0.598-0.012-0.789v-0.326l-0.008-0.872l0.008-0.616c0.026-0.896,0.04-1.801,0.04-2.725
			c0-0.732-0.011-1.382-0.028-1.946l-0.381,0.01l-0.311-0.01c-0.054,0-0.098-0.021-0.137-0.06s-0.055-0.084-0.052-0.135
			C378.574,451.073,378.598,451.03,378.634,450.995z"/>
		<path stroke="#000000" stroke-width="0.5" stroke-miterlimit="10" d="M424.575,480.781c-0.146,0.24-0.288,0.422-0.432,0.539
			c-0.144,0.116-0.294,0.173-0.453,0.173c-0.297,0-0.55-0.199-0.766-0.597c-0.216-0.393-0.387-0.945-0.51-1.658
			c-0.123-0.712-0.186-1.461-0.186-2.246c0-1.065,0.108-1.951,0.321-2.659c0.144-0.456,0.331-0.811,0.565-1.064
			c0.231-0.254,0.503-0.38,0.813-0.38c0.132,0,0.269,0.022,0.408,0.065c0.041,0.014,0.072,0.039,0.099,0.073
			s0.038,0.069,0.038,0.109c0,0.068-0.025,0.122-0.084,0.159c-0.056,0.039-0.117,0.051-0.185,0.03
			c-0.097-0.031-0.182-0.048-0.248-0.048c-0.435,0-0.773,0.388-1.013,1.168c-0.206,0.672-0.308,1.511-0.308,2.518
			c0,0.753,0.06,1.473,0.174,2.16c0.116,0.688,0.273,1.215,0.474,1.582c0.138,0.26,0.272,0.389,0.397,0.389
			c0.164,0,0.342-0.167,0.535-0.505c0.042-0.069,0.107-0.103,0.198-0.103c0.021,0,0.05,0.006,0.092,0.019
			c0.066,0.039,0.099,0.096,0.099,0.171C424.606,480.716,424.595,480.75,424.575,480.781z"/>
		<path stroke="#000000" stroke-width="0.5" stroke-miterlimit="10" d="M431.147,472.709c-0.041,0.04-0.089,0.059-0.143,0.051
			c-0.246,0-0.46,0.003-0.645,0.01c-0.179,0.006-0.369,0.01-0.568,0.01c0.016,0.329,0.021,1.036,0.021,2.118
			c-0.014,0.089-0.021,0.183-0.021,0.284v0.667c0.227-0.015,0.418-0.02,0.576-0.02c0.127,0,0.226,0.003,0.299,0.011
			c0.055,0,0.1,0.017,0.14,0.055c0.04,0.037,0.061,0.083,0.061,0.133c0,0.052-0.021,0.098-0.064,0.139
			c-0.045,0.039-0.093,0.062-0.146,0.062c-0.244-0.007-0.534-0.004-0.865,0.01c0,0.195,0.007,0.489,0.021,0.881l0.01,0.791
			c0,0.202-0.015,0.619-0.05,1.252v0.114c-0.04,0.685-0.054,1.184-0.04,1.502v0.018c0,0.053-0.021,0.094-0.056,0.129
			c-0.034,0.035-0.081,0.053-0.132,0.053h-0.021c-0.046,0-0.087-0.018-0.13-0.053c-0.036-0.035-0.061-0.076-0.069-0.129
			c-0.013-0.321,0-0.832,0.041-1.528v-0.133c0.014-0.242,0.021-0.409,0.021-0.504c0.024-0.486,0.04-0.769,0.028-0.844
			c-0.021-0.685-0.028-1.552-0.028-2.604c0-0.102,0.003-0.195,0.008-0.284c0-1.165-0.001-1.927-0.008-2.288v-0.049
			c0.007-0.049,0.028-0.093,0.067-0.128c0.044-0.034,0.087-0.052,0.14-0.052h0.419h0.319c0.196-0.006,0.425-0.01,0.685-0.01
			c0.05,0.005,0.098,0.028,0.138,0.066c0.04,0.039,0.059,0.083,0.059,0.132C431.212,472.621,431.191,472.666,431.147,472.709z"/>
		<path stroke="#000000" stroke-width="0.5" stroke-miterlimit="10" d="M433.796,480.727c-0.036,0.039-0.081,0.059-0.135,0.059
			l-1.263-0.02c-0.046,0-0.091-0.022-0.128-0.068c-0.042-0.043-0.062-0.09-0.062-0.142c0-0.031,0.009-0.051,0.02-0.057
			c0-2.273-0.026-4.979-0.079-8.121c0-0.082,0.045-0.144,0.133-0.181c0.022-0.012,0.046-0.019,0.065-0.019
			c0.239,0.007,0.562,0,0.966-0.02h0.079h0.061h0.129h0.008c0.049,0,0.09,0.018,0.125,0.052c0.036,0.035,0.059,0.079,0.065,0.131
			c0,0.049-0.021,0.096-0.059,0.137c-0.04,0.04-0.083,0.062-0.132,0.062c-0.019,0.013-0.059,0.019-0.118,0.019h-0.07h-0.068
			c-0.41,0.011-0.675,0.019-0.795,0.019c0.019,1.223,0.029,2.249,0.029,3.077c0.04-0.005,0.104-0.01,0.189-0.01
			c0.098,0,0.173,0.005,0.228,0.01h0.139h0.081c0.093,0,0.163,0.022,0.208,0.066c0.023,0.033,0.041,0.074,0.041,0.134
			c0,0.05-0.021,0.098-0.061,0.137c-0.041,0.043-0.085,0.063-0.13,0.063c-0.026-0.008-0.076-0.01-0.148-0.01h-0.14
			c-0.052-0.007-0.126-0.011-0.218-0.011c-0.081,0-0.142,0.004-0.178,0.011c0.019,1.596,0.028,3.038,0.028,4.331
			c0.298,0.013,0.649,0.018,1.054,0.018c0.047,0,0.09,0.021,0.129,0.062c0.041,0.041,0.059,0.088,0.059,0.138
			S433.831,480.69,433.796,480.727z"/>
		<path stroke="#000000" stroke-width="0.5" stroke-miterlimit="10" d="M428.39,479.798c-0.098-0.581-0.244-1.505-0.446-2.771
			c-0.006-0.032-0.01-0.059-0.013-0.085c-0.007-0.025-0.009-0.045-0.02-0.058c-0.209-1.349-0.36-2.26-0.453-2.736
			c-0.151-0.873-0.27-1.36-0.347-1.462c-0.04-0.057-0.094-0.085-0.16-0.085l-0.051,0.01c-0.059,0.006-0.108,0.041-0.148,0.105
			c-0.021,0.018-0.039,0.044-0.056,0.083c-0.016,0.038-0.028,0.074-0.034,0.105c-0.112,0.305-0.229,0.796-0.348,1.482
			c-0.02,0.096-0.033,0.187-0.038,0.274c-0.066,0.388-0.116,0.653-0.153,0.799c-0.188,0.962-0.373,2.118-0.544,3.465
			c-0.046,0.293-0.08,0.514-0.101,0.667l-0.199,1.481c-0.005,0.05,0.014,0.098,0.057,0.146c0.043,0.048,0.094,0.071,0.156,0.071
			c0.044,0,0.087-0.017,0.125-0.051c0.04-0.036,0.065-0.075,0.07-0.12c0.073-0.494,0.139-0.988,0.199-1.48l0.051-0.372l0.038-0.293
			c0.147-1.007,0.256-1.737,0.328-2.187h0.06h0.339c0.101-0.011,0.216-0.018,0.351-0.018c0.211,0,0.352,0.007,0.424,0.018
			l0.04,0.153c0,0.058,0.003,0.104,0.013,0.142l0.167,1.027c0.131,0.791,0.207,1.26,0.228,1.405c0.155,0.88,0.259,1.42,0.319,1.622
			c0.007,0.045,0.024,0.08,0.058,0.106c0.035,0.025,0.079,0.037,0.131,0.037c0.026,0,0.047-0.002,0.059-0.009
			c0.048-0.007,0.085-0.028,0.11-0.064c0.027-0.04,0.04-0.085,0.04-0.135v-0.028C428.575,480.793,428.49,480.376,428.39,479.798z
			 M427.053,476.381c-0.149,0-0.272,0.004-0.37,0.01h-0.308c0.059-0.361,0.111-0.647,0.161-0.863c0.031-0.128,0.06-0.3,0.087-0.514
			l0.049-0.284l0.053-0.285c0.043-0.33,0.106-0.651,0.188-0.97l0.146,0.751c0.088,0.494,0.207,1.217,0.359,2.165
			C427.345,476.385,427.223,476.381,427.053,476.381z"/>
		<path stroke="#000000" stroke-width="0.5" stroke-miterlimit="10" d="M423.018,462.363c-0.122-0.223-0.228-0.55-0.315-0.985
			c-0.092-0.437-0.224-1.22-0.401-2.354l-0.021-0.096v-0.175c-0.04-0.236-0.061-0.36-0.061-0.371
			c-0.189-1.327-0.382-2.355-0.571-3.084c-0.149-0.509-0.307-0.878-0.468-1.11c-0.044-0.068-0.071-0.105-0.082-0.118
			c0.175-0.08,0.337-0.188,0.488-0.333c0.273-0.284,0.516-0.701,0.738-1.248c0.35-0.911,0.528-1.957,0.528-3.142
			c0-0.675-0.062-1.316-0.184-1.922c-0.123-0.605-0.308-1.114-0.553-1.532c-0.366-0.689-0.87-1.034-1.511-1.034
			c-0.258,0-0.549,0.072-0.875,0.215c-0.07,0.027-0.109,0.06-0.123,0.099c-0.108,0.079-0.165,0.175-0.165,0.291l-0.02,1.698
			c0,1.6,0.026,3.384,0.081,5.346v0.957v0.469c0.027,1.741,0.043,2.933,0.043,3.57c0,2.134-0.043,3.785-0.124,4.955
			c0,0.117,0.04,0.222,0.124,0.313c0.08,0.091,0.176,0.137,0.284,0.137c0.106,0,0.208-0.036,0.295-0.107
			c0.088-0.07,0.134-0.159,0.134-0.265c0.095-1.417,0.142-3.063,0.142-4.936c0-0.572-0.013-1.613-0.041-3.123
			c0.015,0.014,0.031,0.031,0.054,0.05c0.02,0.021,0.036,0.048,0.05,0.089c0.164,0.246,0.286,0.545,0.369,0.896
			c0.16,0.6,0.347,1.599,0.549,3.004c0,0.039,0.013,0.106,0.029,0.195c0.023,0.092,0.039,0.195,0.054,0.312v0.119
			c0.162,1.041,0.301,1.83,0.415,2.371c0.119,0.54,0.253,0.952,0.399,1.239c0.082,0.142,0.214,0.213,0.39,0.213
			c0.081,0,0.15-0.02,0.204-0.058c0.136-0.053,0.204-0.162,0.204-0.333C423.078,462.485,423.058,462.413,423.018,462.363z
			 M420.361,453.406h-0.021v-0.917c-0.056-1.886-0.08-3.604-0.08-5.15l0.022-1.64c0.134-0.025,0.223-0.039,0.265-0.039
			c0.323,0,0.604,0.208,0.835,0.623c0.204,0.339,0.36,0.775,0.469,1.309c0.11,0.533,0.165,1.104,0.165,1.715
			c0,1.107-0.156,2.076-0.47,2.908c-0.177,0.43-0.362,0.74-0.553,0.929C420.805,453.332,420.594,453.419,420.361,453.406z"/>
		<path stroke="#000000" stroke-width="0.5" stroke-miterlimit="10" d="M405.711,464.697c0.086,0.066,0.197,0.098,0.334,0.098
			c0.069,0,0.12-0.006,0.155-0.022c0.121-0.018,0.219-0.075,0.286-0.174c0.069-0.1,0.103-0.215,0.103-0.346v-0.075
			c-0.17-0.659-0.389-1.743-0.648-3.253c-0.256-1.508-0.646-3.914-1.161-7.212c-0.02-0.082-0.032-0.157-0.04-0.226
			c-0.008-0.063-0.021-0.113-0.039-0.146c-0.552-3.513-0.948-5.889-1.19-7.126c-0.397-2.275-0.7-3.546-0.906-3.809
			c-0.105-0.15-0.242-0.222-0.413-0.222l-0.13,0.023c-0.156,0.015-0.285,0.107-0.389,0.27c-0.05,0.052-0.102,0.126-0.143,0.224
			c-0.043,0.101-0.072,0.19-0.092,0.272c-0.294,0.791-0.595,2.078-0.906,3.861c-0.052,0.246-0.084,0.486-0.1,0.716
			c-0.175,1.007-0.307,1.699-0.391,2.079c-0.501,2.506-0.977,5.52-1.425,9.029c-0.121,0.76-0.204,1.337-0.258,1.731l-0.518,3.861
			c-0.019,0.131,0.032,0.26,0.141,0.383c0.113,0.124,0.247,0.185,0.405,0.185c0.12,0,0.229-0.046,0.335-0.135
			c0.103-0.092,0.163-0.193,0.183-0.31c0.186-1.287,0.359-2.574,0.517-3.859l0.127-0.966l0.104-0.768
			c0.379-2.622,0.664-4.517,0.854-5.69h0.153h0.884c0.257-0.034,0.56-0.048,0.903-0.048c0.553,0,0.924,0.014,1.115,0.048
			l0.104,0.395c0,0.15,0.007,0.274,0.023,0.373l0.441,2.673c0.348,2.062,0.543,3.283,0.597,3.662c0.396,2.292,0.67,3.704,0.826,4.23
			C405.573,464.54,405.621,464.631,405.711,464.697z M402.587,451.7c-0.368,0-0.677,0.008-0.927,0.023h-0.774
			c0.15-0.908,0.284-1.633,0.401-2.175c0.083-0.32,0.158-0.751,0.223-1.292l0.126-0.718l0.125-0.717
			c0.117-0.827,0.275-1.643,0.476-2.438l0.375,1.888c0.217,1.243,0.518,3.062,0.902,5.451
			C403.33,451.708,403.021,451.7,402.587,451.7z"/>
		<path stroke="#000000" stroke-width="0.5" stroke-miterlimit="10" d="M397.503,479.166c-0.312-0.585-0.672-1.027-1.079-1.325
			l-0.227-0.138c0.503-0.339,0.914-0.811,1.235-1.416c0.32-0.604,0.48-1.321,0.48-2.155c0-0.26-0.009-0.462-0.023-0.605
			c-0.078-0.986-0.364-1.809-0.854-2.457c-0.492-0.651-1.104-0.976-1.838-0.976c-0.232,0-0.436,0.025-0.615,0.077
			c-0.109,0.014-0.203,0.06-0.284,0.137c-0.082,0.078-0.123,0.17-0.123,0.274c0,1.847-0.005,3.532-0.019,5.053
			c-0.014,1.146-0.023,2.452-0.023,3.921c0,3.226,0.042,5.971,0.123,8.235c0,0.116,0.045,0.215,0.133,0.293
			c0.09,0.078,0.188,0.117,0.297,0.117h0.062c0.3,0.063,0.556,0.098,0.774,0.098c0.925,0,1.662-0.47,2.205-1.406
			c0.491-0.845,0.734-1.982,0.734-3.414c0-0.793-0.081-1.569-0.243-2.332C398.056,480.385,397.816,479.726,397.503,479.166z
			 M394.994,475.635c0.025-1.431,0.039-3.012,0.039-4.74c0.34-0.04,0.666,0.068,0.98,0.319c0.312,0.256,0.565,0.634,0.755,1.133
			c0.191,0.501,0.285,1.084,0.285,1.747c0,0.806-0.182,1.508-0.551,2.109c-0.367,0.595-0.87,0.993-1.509,1.188V475.635z
			 M397.036,486.427c-0.396,0.7-0.927,1.052-1.594,1.052c-0.084,0-0.206-0.013-0.367-0.038c-0.068-1.821-0.102-4.45-0.102-7.885
			v-1.249h0.081c0.055-0.012,0.129-0.018,0.223-0.018c0.573,0,1.07,0.417,1.491,1.248c0.573,1.028,0.856,2.374,0.856,4.039
			C397.625,484.774,397.43,485.723,397.036,486.427z"/>
		<path stroke="#000000" stroke-width="0.5" stroke-miterlimit="10" d="M411.05,480.068c-0.017-0.068-0.024-0.127-0.032-0.178
			c-0.009-0.055-0.017-0.093-0.03-0.12c-0.446-2.831-0.767-4.745-0.96-5.743c-0.32-1.834-0.563-2.856-0.731-3.069
			c-0.082-0.118-0.194-0.179-0.335-0.179l-0.103,0.021c-0.124,0.011-0.229,0.085-0.312,0.219c-0.041,0.041-0.08,0.1-0.114,0.178
			c-0.035,0.082-0.061,0.154-0.074,0.221c-0.235,0.638-0.479,1.674-0.729,3.11c-0.041,0.197-0.067,0.392-0.083,0.577
			c-0.141,0.812-0.243,1.369-0.313,1.676c-0.404,2.02-0.785,4.443-1.145,7.277c-0.101,0.61-0.171,1.076-0.209,1.393l-0.42,3.109
			c-0.013,0.108,0.027,0.208,0.116,0.311c0.089,0.102,0.198,0.148,0.322,0.148c0.098,0,0.19-0.036,0.269-0.108
			c0.087-0.072,0.136-0.156,0.148-0.249c0.154-1.038,0.292-2.074,0.419-3.112l0.103-0.774l0.084-0.619
			c0.307-2.114,0.534-3.641,0.689-4.586h0.126h0.708c0.209-0.024,0.45-0.038,0.729-0.038c0.446,0,0.745,0.014,0.896,0.038
			l0.085,0.321c0,0.119,0.006,0.217,0.02,0.298l0.354,2.153c0.281,1.661,0.438,2.645,0.481,2.95c0.319,1.848,0.54,2.984,0.665,3.407
			c0.014,0.095,0.055,0.167,0.124,0.222c0.071,0.052,0.161,0.078,0.272,0.078c0.056,0,0.1-0.008,0.126-0.02
			c0.098-0.014,0.174-0.059,0.229-0.139c0.057-0.082,0.084-0.173,0.084-0.281v-0.058c-0.139-0.532-0.312-1.407-0.522-2.622
			C411.778,484.663,411.467,482.729,411.05,480.068z M409.171,478.713c-0.304,0-0.562,0.007-0.771,0.02h-0.647
			c0.127-0.756,0.238-1.361,0.335-1.815c0.07-0.265,0.132-0.623,0.188-1.074l0.104-0.599l0.105-0.597
			c0.097-0.693,0.229-1.369,0.398-2.034l0.312,1.575c0.178,1.037,0.43,2.551,0.749,4.544
			C409.79,478.72,409.534,478.713,409.171,478.713z"/>
		<path stroke="#000000" stroke-width="0.5" stroke-miterlimit="10" d="M439.804,468.268c-1.368,0.129-2.854-0.611-3.753-0.98
			c-1.018-0.455-2.356-0.908-4.315-0.675c0,0-6.882,0.847-8.488,1.109c-2.488,0.409-4.247,1.011-6.975,1.365
			c-4.5,0.585-12.742,1.111-18.813,0.344l-11.62-0.581c-1.373-0.091-3.335,1.109-4.278,1.746c-1.056,0.732-2.248,1.324-3.658,1.268
			c-1.969-0.082-3.617-1.16-4.427-2.714l4.861,0.201c0,0,0.632,0.025,0.739-2.397c0.112-2.425-0.524-2.45-0.524-2.45l-4.861-0.2
			c0.983-1.444,2.686-2.42,4.659-2.34c1.373,0.092,2.704,1.057,3.529,1.563c0.925,0.61,2.165,1.269,4.139,1.35l13.646,0.592
			c4.154-0.096,10.502-0.322,14.78-0.857c1.877-0.233,16.778-1.943,16.778-1.943c1.37-0.13,3.09-1.625,3.916-2.403
			c0.913-0.888,1.984-1.661,3.385-1.829c1.96-0.232,3.771,0.572,4.841,1.974l-4.828,0.571c0,0-0.628,0.077-0.317,2.484
			c0.312,2.408,0.942,2.333,0.942,2.333l4.831-0.575C443.27,466.802,441.761,468.034,439.804,468.268"/>
	</g>
	<g>
		<path fill="#010101" d="M216.218,322.594c0-4.226-3.241-7.669-7.916-7.669h-10.911c-1.27,0-2.377,1.066-2.377,2.377v22.19h4.714
			v-9.269h6.769l5.456,9.269h5.376l-5.869-9.927C214.331,328.42,216.218,325.711,216.218,322.594 M207.4,326.164h-7.672v-7.177
			h7.672c2.132,0,4.021,1.228,4.021,3.525C211.421,324.892,209.533,326.164,207.4,326.164"/>
		<path fill="#010101" d="M268.389,328.951h9.723c1.146,0,2.05-0.901,2.05-2.008c0-1.107-0.903-2.011-2.05-2.011h-9.723v-5.946
			h12.92v-4.062h-15.258c-1.27,0-2.378,1.066-2.378,2.377v19.854c0,1.271,1.068,2.38,2.378,2.38h15.298v-4.063h-12.96V328.951z"/>
		<path fill="#010101" d="M305.18,322.594c0-4.226-3.239-7.669-7.915-7.669h-10.911c-1.273,0-2.379,1.066-2.379,2.377v22.19h4.716
			v-9.269h6.768l5.457,9.269h5.373l-5.863-9.927C303.294,328.42,305.18,325.711,305.18,322.594 M296.363,326.164h-7.672v-7.177
			h7.672c2.132,0,4.018,1.228,4.018,3.525C300.381,324.892,298.495,326.164,296.363,326.164"/>
		<path fill="#010101" d="M250.466,332.112l-6.932-17.187h-4.675l9.596,23.215c0.329,0.861,1.111,1.313,2.011,1.313
			c0.904,0,1.68-0.494,2.01-1.313l9.596-23.215h-4.632L250.466,332.112z"/>
		<path fill="#010101" d="M182.433,316.342c0,3.95-10.126,8.254-10.38,13.977c-0.252,4.961,3.949,8.659,12.458,11.141h0.252
			c1.519,0,2.734-1.216,2.734-2.736v-24.863c0-1.52-1.215-2.734-2.734-2.734h-11.242
			C176.156,311.632,182.433,313.152,182.433,316.342"/>
		<path fill="#010101" d="M160.863,330.47c1.874-5.773,8.254-8.406,12.457-10.38c4.102-1.924,11.544-4.962-1.519-8.963h-11.901
			c-1.517,0-2.734,1.215-2.734,2.734v24.863c0,1.52,1.217,2.736,2.734,2.736h3.85C161.927,339.737,159.039,336.042,160.863,330.47"
			/>
		<path fill="#010101" d="M237.669,314.925h-0.042h-4.839h-0.042l-6.112,8.408h-0.163h-0.083l-6.15-8.408h-0.042h-4.839h-0.041
			l8.612,12.469c0.04,0.082,0.123,0.205,0.164,0.288v11.813h0.04h4.676h0.042v-11.772L237.669,314.925z"/>
	</g>
	<g>
		<path d="M231,231.054v14h10.9v11.199H231v17.698c0,5.9,1.401,8.6,6,8.6c1.899,0,3.399-0.201,4.5-0.4l0.1,11.499
			c-1.999,0.8-5.6,1.3-9.899,1.3c-4.899,0-8.999-1.698-11.399-4.199c-2.8-2.9-4.2-7.6-4.2-14.498v-19.999h-6.499v-11.199h6.499
			v-10.599L231,231.054z"/>
		<path d="M297.594,222.955v56.396c0,5.499,0.202,11.297,0.401,14.598h-13.499l-0.7-7.201h-0.2
			c-3.099,5.501-8.999,8.301-15.298,8.301c-11.6,0-20.9-9.898-20.9-25.1c-0.099-16.496,10.2-25.997,21.899-25.997
			c6,0,10.7,2.098,12.9,5.498h0.199v-26.497H297.594z M282.396,265.751c0-0.799-0.1-1.9-0.199-2.699c-0.901-4.1-4.2-7.499-8.9-7.499
			c-6.899,0-10.499,6.199-10.499,13.897c0,8.3,4.098,13.499,10.399,13.499c4.398,0,7.9-3,8.797-7.298
			c0.301-1.1,0.401-2.2,0.401-3.498V265.751z"/>
		<path d="M309.697,280.649c2.799,1.701,8.594,3.7,13.097,3.7c4.599,0,6.496-1.599,6.496-4.099c0-2.499-1.495-3.699-7.198-5.599
			c-10.098-3.401-13.999-8.9-13.897-14.699c0-9.099,7.799-15.999,19.898-15.999c5.7,0,10.8,1.298,13.799,2.798l-2.698,10.501
			c-2.2-1.199-6.401-2.8-10.602-2.8c-3.698,0-5.798,1.5-5.798,4c0,2.3,1.898,3.499,7.898,5.598c9.299,3.2,13.199,7.901,13.3,15.099
			c0,9.1-7.2,15.799-21.198,15.799c-6.398,0-12.1-1.4-15.799-3.397L309.697,280.649z"/>
		<path d="M352.788,293.949c0.201-3.199,0.402-9.099,0.402-14.598v-56.396h15.199v27.898h0.201c2.897-4.201,7.999-6.9,14.798-6.9
			c11.698,0,20.298,9.7,20.197,24.699c0,17.599-11.199,26.396-22.398,26.396c-5.699,0-11.199-2.1-14.698-7.898h-0.199l-0.601,6.799
			H352.788z M368.39,273.152c0,1,0.099,1.898,0.3,2.698c1.001,4.099,4.5,7.197,8.9,7.197c6.498,0,10.497-4.999,10.497-13.796
			c0-7.601-3.399-13.6-10.497-13.6c-4.102,0-7.899,3.099-8.9,7.499c-0.201,0.9-0.3,1.801-0.3,2.8V273.152z"/>
	</g>
	<g>
		<g>
			<path d="M204.111,379.128c-4.408,0-7.576-2.668-7.576-6.852c0-4.131,3.276-6.878,7.576-6.878c4.296,0,7.56,2.731,7.56,6.878
				C211.671,376.459,208.487,379.128,204.111,379.128 M204.111,375.847c1.837,0,2.917-1.634,2.917-3.571
				c0-1.965-1.028-3.59-2.917-3.59c-1.982,0-2.923,1.625-2.923,3.59C201.188,374.213,202.271,375.847,204.111,375.847"/>
			<path d="M223.683,365.731h4.531v13.146h-4.531V365.731z M225.951,359.074c-1.402,0-2.546,1.162-2.546,2.571
				c0,1.412,1.144,2.564,2.546,2.564c1.391,0,2.537-1.153,2.537-2.564C228.488,360.236,227.342,359.074,225.951,359.074"/>
			<path d="M195.64,365.922c-0.339-0.092-1.585-0.526-3.234-0.526c-4.083,0-7.137,2.574-7.137,6.875
				c0,3.893,2.742,6.864,6.953,6.864c1.792,0,3.118-0.479,3.418-0.573l-0.22-3.833c-0.351,0.162-1.255,0.683-2.299,0.683
				c-1.827,0-3.165-1.309-3.165-3.142c0-1.934,1.435-3.175,3.223-3.175c1.004,0,1.9,0.47,2.24,0.641L195.64,365.922"/>
			<path d="M244.801,365.722v13.139h-4.405l-0.059-1.323h-0.098c-0.495,0.44-1.502,1.614-4.341,1.614
				c-3.154,0-5.904-2.756-5.904-6.873c0-3.819,2.441-6.863,6.189-6.863c2.554,0,3.596,1.137,3.99,1.493h0.115l0.044-1.187H244.801z
				 M234.79,372.16c0,2.176,1.2,3.528,2.755,3.528c1.414,0,2.792-1.331,2.792-3.35c0-2.036-1.222-3.432-2.792-3.432
				C235.926,368.906,234.79,370.37,234.79,372.16"/>
			<path d="M170.979,378.378c1.269,0.388,3.194,0.74,5.237,0.74c3.864,0,7.722-1.387,7.722-5.666c0-5.881-8.036-5.064-8.036-7.405
				c0-1.195,1.237-1.451,2.447-1.451c1.679,0,3.806,0.809,4.274,0.997l0.368-4.04c-1.178-0.407-2.954-0.631-4.623-0.631
				c-3.823,0-7.581,1.501-7.581,5.315c0,5.773,8,4.569,8,7.603c0,1.162-1.148,1.603-2.62,1.603c-2.02,0-3.921-1.021-4.743-1.389
				L170.979,378.378"/>
			<path d="M221.735,375.278c-0.227,0.066-0.835,0.22-1.255,0.22c-0.914,0-1.917-0.433-1.917-2.035v-4.446h2.846v-3.301h-2.846
				v-4.232h-4.529v4.232h-1.989v3.301h1.989v5.197c0,2.859,1.31,4.909,4.66,4.909c0.979,0,1.869-0.128,2.481-0.247L221.735,375.278"
				/>
			<path d="M135.35,369.935c-1.055-1.689-1.289-3.935-1.289-5.659c0-5.877,5.203-10.829,10.617-10.829h16.975l-6.589,6.705h-10.501
				C140.342,360.151,135.236,364.468,135.35,369.935 M141.821,365.131c0.438-1.412,1.807-3.22,3.099-4.172
				c-2.465,0-5.23,1.183-7.341,4.172H141.821z M145.223,361.791c-0.959,0.858-2.022,2.159-2.563,3.34h5.092
				C147.22,363.95,146.16,362.649,145.223,361.791 M137.156,366c-0.636,1.141-0.941,2.446-1.056,3.738h4.761
				c0-1.292,0.229-2.597,0.653-3.738H137.156z M142.339,366c-0.426,1.141-0.613,2.446-0.736,3.738h7.207
				c-0.109-1.292-0.309-2.597-0.736-3.738H142.339z M152.75,365.131c-2.02-2.989-4.779-4.172-7.214-4.172
				c1.251,0.953,2.538,2.76,3.084,4.172H152.75z M148.927,366c0.431,1.141,0.628,2.446,0.628,3.738h4.77
				c-0.081-1.292-0.407-2.597-1.057-3.738H148.927z M137.58,374.974c2.111,3.115,4.875,4.183,7.341,4.183
				c-1.292-0.991-2.661-2.794-3.099-4.183H137.58z M145.223,378.397c0.938-0.855,1.997-2.251,2.529-3.423h-5.092
				C143.201,376.146,144.264,377.542,145.223,378.397 M141.515,374.233c-0.424-1.296-0.653-2.573-0.653-3.741h-4.761
				c0.115,1.26,0.42,2.559,1.056,3.741H141.515z M148.074,374.233c0.428-1.182,0.627-2.48,0.736-3.741h-7.207
				c0.123,1.26,0.311,2.559,0.736,3.741H148.074z M148.62,374.974c-0.546,1.389-1.833,3.192-3.084,4.183
				c2.436,0,5.194-1.068,7.214-4.183H148.62z M153.268,374.233c0.65-1.182,0.976-2.48,1.057-3.741h-4.77
				c0,1.168-0.197,2.444-0.628,3.741H153.268z M155.064,370.052c0.116,5.675-4.966,9.951-9.213,9.951H135.35l-6.586,6.63h16.972
				c5.414,0,10.618-4.923,10.618-10.794c0-1.721-0.205-3.974-1.289-5.671V370.052"/>
			<polygon points="273.056,378.872 270.936,378.872 266.366,362.709 266.312,362.709 261.664,378.872 259.518,378.872 
				254.353,360.676 256.187,360.676 260.63,376.838 260.683,376.838 265.307,360.676 267.45,360.676 271.998,376.838 
				272.049,376.838 276.57,360.676 278.276,360.676 			"/>
			<path d="M288.919,378.455c-1.135,0.47-2.608,0.73-3.822,0.73c-4.367,0-5.994-2.973-5.994-6.961c0-4.067,2.221-6.96,5.553-6.96
				c3.72,0,5.245,3.023,5.245,6.595v0.834h-9.016c0,2.816,1.498,5.085,4.338,5.085c1.188,0,2.921-0.497,3.694-0.991V378.455z
				 M288.12,371.285c0-2.32-0.931-4.615-3.358-4.615c-2.403,0-3.875,2.426-3.875,4.615H288.12z"/>
			<path d="M300.57,376.734h-0.052c-0.723,1.591-2.557,2.451-4.186,2.451c-3.744,0-4.337-2.555-4.337-3.753
				c0-4.459,4.7-4.667,8.11-4.667h0.309v-0.679c0-2.268-0.8-3.415-2.998-3.415c-1.366,0-2.66,0.313-3.872,1.095v-1.591
				c1.006-0.495,2.711-0.913,3.872-0.913c3.255,0,4.626,1.487,4.626,4.954v5.866c0,1.068,0,1.877,0.129,2.789h-1.602V376.734z
				 M300.415,372.172h-0.465c-2.815,0-6.174,0.286-6.174,3.208c0,1.746,1.239,2.398,2.74,2.398c3.822,0,3.899-3.363,3.899-4.798
				V372.172z"/>
			<rect x="305.917" y="359.319" width="1.627" height="19.553"/>
			<path d="M317.333,366.984h-2.998v8.602c0,1.201,0.442,2.192,1.758,2.192c0.621,0,1.035-0.132,1.5-0.312l0.103,1.354
				c-0.387,0.158-1.188,0.366-1.987,0.366c-2.896,0-2.999-2.008-2.999-4.433v-7.768h-2.581v-1.409h2.581v-3.207l1.626-0.573v3.78
				h2.998V366.984z"/>
			<path d="M320.253,359.319h1.627v8.499h0.051c0.698-1.458,2.169-2.555,4.107-2.555c3.541,0,4.494,2.373,4.494,5.657v7.951h-1.624
				v-7.926c0-2.292-0.438-4.273-3.125-4.273c-2.897,0-3.903,2.762-3.903,5.083v7.117h-1.627V359.319z"/>
			<polygon points="341.054,360.675 343.821,360.675 350.406,376.682 357.021,360.675 359.578,360.675 359.578,378.872 
				357.796,378.872 357.796,362.473 357.744,362.473 351.183,378.872 349.658,378.872 342.889,362.473 342.838,362.473 
				342.838,378.872 341.054,378.872 			"/>
			<path d="M371.408,376.734h-0.051c-0.726,1.591-2.557,2.451-4.186,2.451c-3.748,0-4.343-2.555-4.343-3.753
				c0-4.459,4.704-4.667,8.114-4.667h0.31v-0.679c0-2.268-0.801-3.415-2.997-3.415c-1.371,0-2.662,0.313-3.872,1.095v-1.591
				c1.003-0.495,2.71-0.913,3.872-0.913c3.255,0,4.626,1.487,4.626,4.954v5.866c0,1.068,0,1.877,0.126,2.789h-1.6V376.734z
				 M371.253,372.172h-0.465c-2.815,0-6.175,0.286-6.175,3.208c0,1.746,1.242,2.398,2.738,2.398c3.823,0,3.901-3.363,3.901-4.798
				V372.172z"/>
			<path d="M376.755,368.704c0-1.016,0-2.058-0.105-3.129h1.578v2.374h0.05c0.544-1.199,1.525-2.685,4.264-2.685
				c3.255,0,4.494,2.19,4.494,5.109v8.499h-1.626v-8.081c0-2.504-0.878-4.121-3.128-4.121c-2.968,0-3.898,2.633-3.898,4.849v7.353
				h-1.628V368.704z"/>
			<path d="M398.687,376.734h-0.053c-0.723,1.591-2.558,2.451-4.186,2.451c-3.745,0-4.341-2.555-4.341-3.753
				c0-4.459,4.704-4.667,8.114-4.667h0.311v-0.679c0-2.268-0.802-3.415-2.999-3.415c-1.367,0-2.659,0.313-3.875,1.095v-1.591
				c1.009-0.495,2.712-0.913,3.875-0.913c3.256,0,4.628,1.487,4.628,4.954v5.866c0,1.068,0,1.877,0.127,2.789h-1.602V376.734z
				 M398.532,372.172h-0.466c-2.816,0-6.175,0.286-6.175,3.208c0,1.746,1.24,2.398,2.737,2.398c3.824,0,3.903-3.363,3.903-4.798
				V372.172z"/>
			<path d="M414.471,377.778c0,3.702-1.655,6.726-6.176,6.726c-1.729,0-3.307-0.497-3.977-0.706l0.128-1.641
				c1.007,0.521,2.453,0.938,3.875,0.938c4.184,0,4.546-3.076,4.546-6.83h-0.052c-0.88,1.929-2.324,2.606-4.003,2.606
				c-4.212,0-5.556-3.703-5.556-6.648c0-4.041,1.55-6.961,5.426-6.961c1.755,0,2.893,0.235,4.108,1.826h0.052v-1.513h1.628V377.778z
				 M408.838,377.464c2.944,0,4.005-2.816,4.005-5.241c0-3.206-0.929-5.553-3.901-5.553c-3.102,0-3.902,2.972-3.902,5.553
				C405.039,374.831,406.072,377.464,408.838,377.464"/>
			<path d="M427.231,378.455c-1.137,0.47-2.61,0.73-3.825,0.73c-4.366,0-5.996-2.973-5.996-6.961c0-4.067,2.225-6.96,5.558-6.96
				c3.72,0,5.243,3.023,5.243,6.595v0.834h-9.014c0,2.816,1.496,5.085,4.338,5.085c1.188,0,2.92-0.497,3.696-0.991V378.455z
				 M426.43,371.285c0-2.32-0.931-4.615-3.359-4.615c-2.402,0-3.873,2.426-3.873,4.615H426.43z"/>
			<path d="M447.225,378.872v-8.837c0-1.878-0.699-3.363-2.79-3.363c-1.781,0-3.54,1.537-3.54,4.849v7.351h-1.627v-8.837
				c0-1.878-0.698-3.363-2.79-3.363c-1.782,0-3.541,1.537-3.541,4.849v7.351h-1.627v-10.167c0-1.017,0-2.059-0.104-3.129h1.576
				v2.242l0.053,0.026c0.516-0.912,1.29-2.581,4.108-2.581c1.16,0,3.073,0.496,3.486,2.815h0.052
				c0.594-1.563,2.145-2.815,4.21-2.815c2.664,0,4.159,1.877,4.159,4.458v9.15H447.225z"/>
			<path d="M461.662,378.455c-1.137,0.47-2.607,0.73-3.823,0.73c-4.366,0-5.993-2.973-5.993-6.961c0-4.067,2.222-6.96,5.554-6.96
				c3.72,0,5.245,3.023,5.245,6.595v0.834h-9.016c0,2.816,1.498,5.085,4.339,5.085c1.188,0,2.919-0.497,3.694-0.991V378.455z
				 M460.863,371.285c0-2.32-0.93-4.615-3.36-4.615c-2.402,0-3.874,2.426-3.874,4.615H460.863z"/>
			<path d="M465.743,368.704c0-1.016,0-2.058-0.103-3.129h1.574v2.374h0.053c0.542-1.199,1.523-2.685,4.263-2.685
				c3.257,0,4.494,2.19,4.494,5.109v8.499h-1.628v-8.081c0-2.504-0.876-4.121-3.126-4.121c-2.969,0-3.898,2.633-3.898,4.849v7.353
				h-1.629V368.704z"/>
			<path d="M485.789,366.984h-2.999v8.602c0,1.201,0.442,2.192,1.76,2.192c0.619,0,1.031-0.132,1.498-0.312l0.104,1.354
				c-0.389,0.158-1.188,0.366-1.988,0.366c-2.895,0-2.999-2.008-2.999-4.433v-7.768h-2.584v-1.409h2.584v-3.207l1.626-0.573v3.78
				h2.999V366.984z"/>
		</g>
	</g>
	<g>
		<g id="XMLID_1_">
			<g>
				<g id="XMLID_2_">
					<g>
						<path fill="#27120C" d="M277.57,403.31c0.04,0.15,0.07,0.301,0.09,0.46C277.64,403.62,277.61,403.46,277.57,403.31z"/>
						<path fill="#27120C" d="M277.21,402.47c0.16,0.261,0.28,0.55,0.36,0.84C277.49,403.02,277.37,402.73,277.21,402.47z"/>
						<path fill="#27120C" d="M266.79,395.88l9.13,5.311c0.54,0.31,0.99,0.75,1.29,1.27c-0.31-0.51-0.75-0.93-1.29-1.2l-9.13-5.31
							c-0.54-0.28-1.15-0.41-1.77-0.41v-0.07C265.64,395.47,266.25,395.6,266.79,395.88z"/>
						<path d="M242.22,395.95l2.31,1.43l8.24,4.76l12.25,7.08v-0.13v-13.55c0.62,0,1.23,0.13,1.77,0.41l9.13,5.31
							c0.54,0.271,0.98,0.69,1.29,1.2c0,0.01,0,0.01,0,0.01c0.16,0.261,0.28,0.55,0.36,0.84c0.04,0.15,0.07,0.311,0.09,0.46
							c0.02,0.16,0.03,0.32,0.03,0.48v9.81v15.931c0,0,0,0.06-0.01,0.16c0,0.119-0.01,0.26-0.02,0.409
							c-0.02,0.21-0.06,0.431-0.11,0.58l-25.12-14.43l-1.16-0.68c0,0-3.2-1.84-7.15-4.15l-1.02-0.62
							c-2.25-1.29-4.63-2.649-6.81-3.939c-0.34-0.21-0.68-0.41-1.02-0.551c-2.34-1.319-4.36-2.479-5.55-3.159
							c-0.71-0.41-1.12-0.65-1.12-0.65c0.27-0.75,0.82-1.36,1.57-1.77l5.17-3l3.61-2.11c0.09-0.05,0.16-0.1,0.24-0.15
							c0.03-0.02,0.07-0.03,0.1-0.05l0.07-0.07c0.12-0.05,0.23-0.1,0.34-0.14c0.22-0.08,0.44-0.14,0.65-0.16
							c0.22-0.03,0.44-0.02,0.66,0.01C241.4,395.58,241.8,395.72,242.22,395.95z"/>
						<polygon fill="#27120C" points="253.31,432.1 253.28,432.12 253.25,432.1 253.13,432.03 253.16,432.01 						"/>
						<polygon fill="#27120C" points="253.16,432.01 253.13,432.03 241.06,425.06 241.06,425.02 						"/>
						<polygon fill="#27120C" points="252.77,402.14 244.53,397.38 242.22,395.95 244.53,397.24 252.77,402 265.02,409.09 
							265.02,409.22 						"/>
						<path d="M241.06,438.63v-13.57l12.07,6.971l-11.05,6.399c-0.32,0.19-0.64,0.32-1.02,0.33V438.63z"/>
						<path fill="#27120C" d="M242.22,395.95c-0.42-0.23-0.82-0.37-1.21-0.43C241.41,395.57,241.81,395.72,242.22,395.95z"/>
						<path fill="#27120C" d="M241.06,438.84v-0.08c0.38-0.01,0.7-0.14,1.02-0.33l11.05-6.399l0.12,0.069l0.03,0.021l-11.13,6.38
							C241.81,438.7,241.47,438.84,241.06,438.84z"/>
					</g>
					<g>
						<path fill="none" stroke="#27120C" stroke-miterlimit="10" d="M265.02,395.47c-0.47,0-0.88,0.07-1.29,0.27
							c0,0-0.07,0-0.07,0.07c-0.13,0.07-0.2,0.07-0.34,0.14L252.77,402"/>
						<line fill="none" stroke="#27120C" stroke-miterlimit="10" x1="240.99" y1="424.95" x2="240.99" y2="425.02"/>
						<path fill="none" stroke="#27120C" stroke-miterlimit="10" d="M240.99,438.77c0.02,0,0.05,0,0.07-0.01
							c0.38-0.01,0.7-0.14,1.02-0.33l11.05-6.399l0.03-0.021l0.09-0.05"/>
						<path fill="none" stroke="#27120C" stroke-miterlimit="10" d="M228.6,402.96c-0.14,0.41-0.27,0.82-0.27,1.29
							c0,0.07,0,0.21,0,0.27v26.011c0,0.819,0.47,1.569,1.15,1.979l10.35,6.061c0.34,0.199,0.75,0.27,1.16,0.27v-0.07v-0.14v-0.06
							V425.56v-0.54l0.07,0.04l12.07,6.971l0.12,0.069l0.03,0.021l11.2,6.45c0.07,0,0.14,0.06,0.2,0.06h0.07
							c0.68,0.28,1.23,0.07,1.84-0.34l3.95-2.24l6.26-3.75c0.32-0.26,0.59-0.64,0.73-1.03c0.01-0.02,0.01-0.039,0.02-0.06"/>
						<line fill="none" stroke="#27120C" stroke-miterlimit="10" x1="236.07" y1="407.25" x2="235.27" y2="406.77"/>
						<line fill="none" stroke="#27120C" stroke-miterlimit="10" x1="244.12" y1="411.88" x2="243.1" y2="411.26"/>
						<path fill="none" stroke="#27120C" stroke-miterlimit="10" d="M230.17,401.19c-0.75,0.409-1.3,1.02-1.57,1.77
							c0,0,0.41,0.24,1.12,0.65c1.19,0.689,3.21,1.87,5.55,3.229c0.27,0.16,0.53,0.28,0.8,0.41c0.07,0.04,0.15,0.09,0.22,0.13
							c2.18,1.3,4.56,2.66,6.81,3.95c0.34,0.21,0.68,0.41,1.02,0.62c4.02,2.31,7.15,4.149,7.15,4.149l1.16,0.681l25.1,14.489
							l0.02,0.011c0.06-0.21,0.1-0.48,0.11-0.721c0.02-0.159,0.02-0.31,0.02-0.409c0.01-0.101,0.01-0.16,0.01-0.16V414.06v-9.81
							c0-0.16-0.01-0.32-0.03-0.48c-0.02-0.149-0.05-0.31-0.09-0.46c-0.08-0.29-0.2-0.579-0.36-0.84c0,0,0,0,0-0.01
							c-0.31-0.51-0.75-0.93-1.29-1.2l-9.13-5.31c-0.54-0.28-1.15-0.41-1.77-0.41v13.55v0.13l-12.25-7.08l-8.24-4.76l-2.31-1.43
							c-0.42-0.23-0.82-0.37-1.21-0.43c-0.22-0.03-0.44-0.04-0.66-0.01c-0.22,0.02-0.43,0.07-0.65,0.16
							c-0.11,0.03-0.23,0.08-0.34,0.14c0,0-0.07,0-0.07,0.07c-0.03,0.02-0.07,0.03-0.1,0.05c-0.1,0.05-0.19,0.1-0.24,0.15
							l-3.61,2.11L230.17,401.19"/>
					</g>
				</g>
			</g>
		</g>
		<g>
			<path fill="#010101" d="M302.606,430.057h-1.157l-0.613-3.949l0,0l-1.158,3.063h-0.816l-1.157-3.063l0,0l-0.613,3.949h-1.09
				l1.09-6.129h0.818l1.361,3.472l0,0l1.361-3.472h0.817L302.606,430.057z"/>
			<path fill="#010101" d="M297.5,419.57h-2.791l-8.035-11.37l0,0v11.37h-2.995v-16.545h2.792l8.033,11.371l0,0v-11.371h2.996
				V419.57z"/>
			<path fill="#010101" d="M317.856,411.333c0,5.104-3.744,8.646-8.646,8.646c-4.901,0-8.646-3.473-8.646-8.646
				c0-5.176,3.745-8.647,8.646-8.647C314.112,402.686,317.856,406.157,317.856,411.333z M303.899,411.333
				c0,3.268,2.247,5.514,5.311,5.514c3.132,0,5.311-2.246,5.311-5.514c0-3.269-2.247-5.517-5.311-5.517
				C306.146,405.75,303.899,407.997,303.899,411.333z"/>
			<path fill="#010101" d="M325.278,412.966h-1.157v6.604h-2.997v-16.545h6.061c3.268,0,5.311,2.043,5.311,5.039
				c0,2.451-1.431,4.289-3.881,4.765l4.902,6.741h-3.813L325.278,412.966z M324.188,410.311h2.589c1.77,0,2.587-0.817,2.587-2.246
				c0-1.362-0.817-2.248-2.587-2.248h-2.589V410.311z"/>
			<path fill="#010101" d="M350.061,411.333c0,5.174-3.608,8.237-8.58,8.237h-5.31v-16.545h5.31
				C346.452,403.025,350.061,406.157,350.061,411.333z M339.234,405.816v10.962h2.383c2.997,0,5.173-1.905,5.173-5.445
				c0-3.541-2.246-5.448-5.173-5.448L339.234,405.816z"/>
			<path fill="#010101" d="M356.323,419.57h-3.063v-16.545h3.063V419.57z"/>
			<path fill="#010101" d="M359.591,411.333c0-5.243,3.677-8.647,8.92-8.647c2.519,0,4.424,0.749,5.923,1.839l-1.77,2.655
				c-1.021-0.682-2.382-1.363-4.153-1.363c-3.199,0-5.582,2.181-5.582,5.517c0,3.403,2.383,5.514,5.582,5.514
				c1.771,0,3.132-0.682,4.153-1.361l1.77,2.655c-1.499,1.022-3.336,1.839-5.923,1.839
				C363.268,419.91,359.591,416.507,359.591,411.333z"/>
			<path fill="#010101" d="M283.271,429.579l0.476-1.021c0.477,0.272,1.089,0.545,1.634,0.545c0.545,0,0.886-0.272,0.886-0.613
				s-0.204-0.545-0.613-0.817l-1.021-0.682c-0.681-0.476-0.953-0.951-0.953-1.633c0-0.953,0.681-1.566,1.838-1.566
				c0.613,0,1.226,0.137,1.771,0.409l-0.477,1.021c-0.476-0.204-0.885-0.409-1.293-0.409c-0.477,0-0.613,0.205-0.613,0.478
				c0,0.204,0.136,0.408,0.476,0.612l1.09,0.749c0.681,0.476,1.021,0.952,1.021,1.702c0,1.158-0.817,1.77-2.111,1.77
				C284.564,430.191,283.815,429.92,283.271,429.579"/>
			<path fill="#010101" d="M293.551,429.034v1.022h-3.677v-6.129h3.608v1.021h-2.52v1.226h2.315v1.021h-2.315v1.771L293.551,429.034
				z"/>
			<path fill="#010101" d="M306.214,430.057h-1.157v-6.129h1.157V430.057z"/>
			<path fill="#010101" d="M306.214,430.057h-1.157v-6.129h1.157V430.057z"/>
			<path fill="#010101" d="M308.462,426.99c0-1.905,1.361-3.199,3.336-3.199c0.952,0,1.634,0.272,2.178,0.682l-0.612,0.953
				c-0.408-0.272-0.886-0.477-1.565-0.477c-1.158,0-2.043,0.816-2.043,2.041c0,1.227,0.885,2.044,2.043,2.044
				c0.68,0,1.157-0.272,1.565-0.477l0.612,0.954c-0.544,0.408-1.226,0.68-2.178,0.68
				C309.892,430.191,308.462,428.898,308.462,426.99z"/>
			<path fill="#010101" d="M322.282,426.99c0,1.908-1.362,3.201-3.199,3.201c-1.839,0-3.201-1.293-3.201-3.201
				c0-1.905,1.362-3.199,3.201-3.199C320.852,423.791,322.282,425.085,322.282,426.99z M317.108,426.99
				c0,1.227,0.816,2.044,1.975,2.044c1.157,0,1.974-0.817,1.974-2.044c0-1.225-0.816-2.041-1.974-2.041
				C317.925,424.949,317.108,425.766,317.108,426.99z"/>
			<path fill="#010101" d="M329.771,430.057h-1.021l-2.995-4.222l0,0v4.222h-1.09v-6.129h1.021l2.995,4.221l0,0v-4.221h1.09V430.057
				z"/>
			<path fill="#010101" d="M337.669,426.99c0,1.908-1.361,3.066-3.199,3.066h-1.975v-6.129h1.975
				C336.308,423.928,337.669,425.085,337.669,426.99z M333.651,424.949v4.085h0.887c1.088,0,1.905-0.681,1.905-2.044
				c0-1.292-0.817-2.041-1.905-2.041H333.651z"/>
			<path fill="#010101" d="M345.023,427.604c0,1.567-0.886,2.52-2.521,2.52c-1.633,0-2.519-1.021-2.519-2.52v-3.676h1.156v3.608
				c0,0.885,0.545,1.43,1.362,1.43s1.362-0.545,1.362-1.43v-3.608h1.158V427.604z"/>
			<path fill="#010101" d="M347.337,426.99c0-1.905,1.36-3.199,3.336-3.199c0.954,0,1.634,0.272,2.179,0.682l-0.613,0.953
				c-0.409-0.272-0.886-0.477-1.565-0.477c-1.157,0-2.043,0.816-2.043,2.041c0,1.227,0.886,2.044,2.043,2.044
				c0.68,0,1.156-0.272,1.565-0.477l0.613,0.954c-0.545,0.408-1.225,0.68-2.179,0.68
				C348.697,430.191,347.337,428.898,347.337,426.99z"/>
			<path fill="#010101" d="M359.116,424.949h-1.703v5.038h-1.09v-5.038h-1.701v-1.021h4.426v1.021H359.116z"/>
			<path fill="#010101" d="M367.285,426.99c0,1.908-1.362,3.201-3.2,3.201c-1.837,0-3.199-1.293-3.199-3.201
				c0-1.905,1.362-3.199,3.199-3.199C365.854,423.791,367.285,425.085,367.285,426.99z M362.044,426.99
				c0,1.227,0.817,2.044,1.974,2.044c1.157,0,1.975-0.817,1.975-2.044c0-1.225-0.817-2.041-1.975-2.041
				C362.929,424.949,362.044,425.766,362.044,426.99z"/>
			<path fill="#010101" d="M371.098,427.604h-0.408v2.453h-1.091v-6.129h2.248c1.227,0,1.974,0.749,1.974,1.838
				c0,0.886-0.545,1.565-1.429,1.771l1.838,2.521h-1.429L371.098,427.604z M370.689,426.584h0.953c0.613,0,0.954-0.272,0.954-0.818
				c0-0.476-0.272-0.816-0.954-0.816h-0.953V426.584z"/>
		</g>
	</g>
	<g>
		<path d="M204.298,469.673c-1.915,0-3.473-1.559-3.473-3.476c0-1.918,1.558-3.479,3.473-3.479c1.917,0,3.477,1.562,3.477,3.479
			C207.775,468.114,206.216,469.673,204.298,469.673z M204.298,462.974c-1.774,0-3.218,1.445-3.218,3.224
			c0,1.777,1.443,3.221,3.218,3.221c1.776,0,3.221-1.443,3.221-3.221C207.52,464.419,206.075,462.974,204.298,462.974z"/>
		<path d="M236.862,477.001c-4.281,0-8.057-1.243-10.632-3.502l-0.094-0.083l3.83-4.562l0.096,0.072
			c2.046,1.56,4.508,2.383,7.123,2.383c1.086,0,1.637-0.255,1.637-0.754v-0.061c0-0.513-0.668-0.811-2.75-1.226
			c-3.699-0.753-5.162-1.456-6.105-2.045c-1.792-1.118-2.663-2.653-2.663-4.691v-0.061c0-2.029,0.789-3.769,2.283-5.031
			c1.572-1.329,3.846-2.031,6.573-2.031c3.929,0,6.906,0.904,9.367,2.849l0.096,0.075l-3.5,4.846l-0.104-0.076
			c-1.749-1.272-3.969-2.004-6.093-2.004c-0.872,0-1.372,0.266-1.372,0.729v0.057c0,0.441,0.43,0.78,2.629,1.2
			c3.037,0.558,5.015,1.219,6.414,2.147c1.667,1.106,2.477,2.618,2.477,4.619v0.055c0,2.153-0.871,3.953-2.52,5.208
			C241.927,476.348,239.614,477.001,236.862,477.001z M226.492,473.39c2.526,2.165,6.203,3.356,10.37,3.356
			c2.696,0,4.956-0.635,6.536-1.837c1.583-1.203,2.419-2.934,2.419-5.004v-0.055c0-1.908-0.773-3.35-2.363-4.406
			c-1.369-0.908-3.318-1.559-6.32-2.109c-2.147-0.411-2.837-0.764-2.837-1.451v-0.057c0-0.296,0.158-0.983,1.627-0.983
			c2.135,0,4.364,0.72,6.14,1.979l3.208-4.439c-2.395-1.854-5.294-2.719-9.112-2.719c-2.667,0-4.882,0.681-6.409,1.972
			c-1.434,1.212-2.192,2.884-2.192,4.836v0.061c0,1.943,0.832,3.406,2.543,4.476c1.647,1.027,3.968,1.592,6.021,2.011
			c2.265,0.451,2.955,0.797,2.955,1.476v0.061c0,0.67-0.637,1.008-1.893,1.008c-2.628,0-5.109-0.814-7.179-2.36L226.492,473.39z"/>
		<path d="M257.334,477.028c-3.217,0-5.72-0.771-7.439-2.294c-1.854-1.642-2.793-4.156-2.793-7.473v-11.47h7.247v11.381
			c0,2.267,1.082,3.515,3.047,3.515c1.391,0,3.049-0.583,3.049-3.364v-11.531h7.244v11.325c0,3.397-0.959,5.962-2.852,7.622
			C263.104,476.258,260.58,477.028,257.334,477.028z M247.356,456.047v11.215c0,3.241,0.911,5.69,2.708,7.281
			c1.671,1.479,4.118,2.229,7.271,2.229c3.182,0,5.649-0.748,7.334-2.226c1.834-1.609,2.765-4.108,2.765-7.43v-11.07h-6.734v11.276
			c0,2.335-1.173,3.62-3.304,3.62c-1.005,0-1.804-0.304-2.373-0.901c-0.617-0.646-0.93-1.612-0.93-2.869v-11.126H247.356z"/>
		<path d="M276.616,476.619h-7.133V455.79h9.384c2.792,0,5.119,0.643,6.727,1.856c1.725,1.301,2.6,3.182,2.6,5.59v0.057
			c0,2.426-0.913,4.421-2.64,5.769c-1.65,1.289-4.014,1.971-6.833,1.971h-2.105V476.619z M269.738,476.363h6.623v-5.587h2.36
			c2.762,0,5.071-0.662,6.677-1.915c1.662-1.298,2.541-3.223,2.541-5.568v-0.057c0-2.323-0.84-4.137-2.498-5.387
			c-1.564-1.18-3.837-1.804-6.574-1.804h-9.129V476.363z M278.339,466.124l-1.978-0.001v-4.836h2.007
			c0.948,0,1.693,0.201,2.215,0.596c0.545,0.411,0.822,1.015,0.822,1.793v0.061C281.405,465.231,280.259,466.124,278.339,466.124z
			 M276.616,465.869h1.723c1.76,0,2.811-0.797,2.811-2.133v-0.061c0-1.376-0.988-2.133-2.782-2.133h-1.752V465.869z"/>
		<path d="M296.539,476.619h-7.13V455.79h9.383c2.791,0,5.117,0.643,6.725,1.856c1.703,1.284,2.602,3.216,2.602,5.59v0.057
			c0,2.426-0.912,4.421-2.639,5.769c-1.651,1.289-4.014,1.971-6.833,1.971h-2.108V476.619z M289.664,476.363h6.621v-5.587h2.362
			c2.763,0,5.071-0.662,6.676-1.915c1.663-1.298,2.541-3.223,2.541-5.568v-0.057c0-2.323-0.841-4.135-2.499-5.387
			c-1.565-1.18-3.838-1.804-6.573-1.804h-9.129V476.363z M298.265,466.124l-1.98-0.001v-4.836h2.009
			c0.947,0,1.692,0.201,2.213,0.596c0.546,0.411,0.822,1.015,0.822,1.793v0.061C301.329,465.231,300.184,466.124,298.265,466.124z
			 M296.539,465.869h1.726c1.759,0,2.81-0.797,2.81-2.133v-0.061c0-1.376-0.987-2.133-2.781-2.133h-1.754V465.869z"/>
		<path d="M324.853,476.618h-15.521v-20.826h7.133v14.69h8.389V476.618z M309.585,476.363h15.012v-5.625h-8.387v-14.691h-6.625
			V476.363z"/>
		<path d="M335.409,476.619h-7.129v-7.385l-7.856-13.444h8l3.449,6.611l3.481-6.611h7.911l-7.856,13.36V476.619z M328.535,476.363
			h6.619v-7.282l0.018-0.03l7.648-13.005h-7.312l-3.636,6.904l-3.603-6.904h-7.402l7.668,13.12V476.363z"/>
		<path d="M219.246,466.233c0,2.968-2.027,4.261-5.174,4.261h-1.145v-8.579h1.145c3.147,0,5.174,1.294,5.174,4.259V466.233z
			 M213.926,455.919h-8.518v4.91c2.497,0.515,4.37,2.722,4.37,5.368c0,2.642-1.873,4.848-4.37,5.364v4.929h8.281
			c8.317,0,12.491-4.32,12.491-10.405v-0.054C226.18,459.943,222.094,455.919,213.926,455.919 M198.822,466.197
			c0-2.602,1.811-4.773,4.237-5.333v-4.945h-7.193v7.257h-5.654v-7.257h-7.195v20.571h7.195v-7.374h5.654v7.374h7.193v-4.963
			C200.632,470.965,198.822,468.794,198.822,466.197"/>
	</g>
</g>
</svg>
